<svg width="253" height="280" viewBox="0 0 253 280" fill="none" xmlns="http://www.w3.org/2000/svg">
<g clip-path="url(#clip0_104_252)">
<path d="M246.171 89.2058C228.642 47.791 183.608 17.9634 139.987 4.8367C27.0416 -29.6366 -24.3667 130.27 11.0699 165.202C41.1767 203.088 78.2339 180.075 105.667 188.457C260.054 236.273 261.359 123.616 246.171 89.2058Z" fill="#00E4A1"/>
<path opacity="0.9" d="M246.171 89.2058C228.642 47.791 183.608 17.9634 139.987 4.8367C27.0416 -29.6366 -24.3667 130.27 11.0699 165.202C41.1767 203.088 78.2339 180.075 105.667 188.457C260.054 236.273 261.359 123.616 246.171 89.2058Z" fill="white"/>
<path d="M130.448 280.187C197.629 280.187 252.091 277.008 252.091 273.086C252.091 269.163 197.629 265.984 130.448 265.984C63.2668 265.984 8.80566 269.163 8.80566 273.086C8.80566 277.008 63.2668 280.187 130.448 280.187Z" fill="#F5F7FA"/>
<path d="M199.796 131.742L206.099 204.74C206.603 210.682 202.975 215.895 197.996 216.318L59.4724 228.202C54.5206 228.634 50.046 224.115 49.5688 218.182L43.2666 145.175C43.1415 143.804 43.248 142.422 43.5817 141.087C44.572 137.009 47.5791 133.885 51.3425 133.605L189.866 121.712C193.62 121.388 197.068 123.918 198.788 127.753C199.342 129.018 199.683 130.366 199.796 131.742Z" fill="#00E4A1"/>
<path opacity="0.1" d="M199.796 131.742L206.099 204.74C206.603 210.682 202.975 215.895 197.996 216.318L59.4724 228.202C54.5206 228.634 50.046 224.115 49.5688 218.182L43.2666 145.175C43.1415 143.804 43.248 142.422 43.5817 141.087C44.572 137.009 47.5791 133.885 51.3425 133.605L189.866 121.712C193.62 121.388 197.068 123.918 198.788 127.753C199.342 129.018 199.683 130.366 199.796 131.742Z" fill="black"/>
<path d="M216.242 174.774L215.259 174.893L215.656 178.182L216.639 178.063L216.242 174.774Z" fill="#00E4A1"/>
<path d="M214.325 158.893L213.342 159.012L214.823 171.266L215.806 171.148L214.325 158.893Z" fill="#00E4A1"/>
<path d="M206 118.687L215.057 193.558C215.787 199.644 212.239 205.136 207.162 205.748L65.0998 222.935C60.022 223.548 55.2593 219.064 54.521 212.969L45.4638 138.107C45.2915 136.699 45.3523 135.273 45.6439 133.884C46.5442 129.662 49.4972 126.376 53.3596 125.908L195.421 108.729C199.284 108.261 202.957 110.737 204.821 114.627C205.435 115.906 205.833 117.278 206 118.687Z" fill="#00E4A1"/>
<path opacity="0.1" d="M204.821 114.627L140.385 158.013C137.231 160.169 133.605 161.534 129.813 161.993C126.021 162.452 122.174 161.992 118.597 160.651L45.6709 133.885C46.5712 129.662 49.5243 126.376 53.3867 125.908L195.448 108.73C199.284 108.262 202.957 110.737 204.821 114.627Z" fill="black"/>
<path d="M180.782 130.805L162.271 143.266L156.212 147.353L140.384 158.013C137.312 160.121 133.787 161.475 130.094 161.966C126.401 162.458 122.644 162.072 119.128 160.84L118.561 160.651L109.683 157.392L89.6963 150.054L80.351 146.624L69.7632 142.735L68.9979 124.017L67.2783 82.4221L148.604 79.1179L179.602 102.607L179.927 110.593L180.782 130.805Z" fill="#00E4A1"/>
<path opacity="0.7" d="M180.782 130.805L162.271 143.266L156.212 147.353L140.384 158.013C137.312 160.121 133.787 161.475 130.094 161.966C126.401 162.458 122.644 162.072 119.128 160.84L118.561 160.651L109.683 157.392L89.6963 150.054L80.351 146.624L69.7632 142.735L68.9979 124.017L67.2783 82.4221L148.604 79.1179L179.602 102.607L179.927 110.593L180.782 130.805Z" fill="#FAFAFA"/>
<g opacity="0.9">
<path opacity="0.9" d="M169.321 110.881L79.2889 114.537C78.7868 114.557 78.2967 114.379 77.9233 114.043C77.5499 113.707 77.3227 113.238 77.2902 112.736C77.2728 112.235 77.4511 111.748 77.7872 111.376C78.1234 111.005 78.591 110.779 79.0909 110.746L169.123 107.091C169.625 107.071 170.115 107.248 170.489 107.585C170.862 107.921 171.089 108.39 171.122 108.892C171.142 109.393 170.964 109.882 170.627 110.254C170.291 110.626 169.822 110.851 169.321 110.881Z" fill="white"/>
<path opacity="0.9" d="M169.798 122.847L79.7655 126.502C79.2633 126.522 78.7733 126.345 78.3999 126.008C78.0265 125.672 77.7993 125.203 77.7668 124.701C77.7493 124.2 77.9272 123.711 78.2632 123.338C78.5991 122.965 79.0668 122.737 79.5675 122.703L169.6 119.047C170.101 119.03 170.59 119.208 170.963 119.544C171.336 119.88 171.564 120.347 171.598 120.848C171.614 121.349 171.435 121.837 171.099 122.209C170.764 122.581 170.298 122.81 169.798 122.847Z" fill="white"/>
<path opacity="0.9" d="M170.284 134.803L80.2522 138.458C79.75 138.478 79.2599 138.301 78.8865 137.965C78.5131 137.628 78.2859 137.159 78.2534 136.658C78.2337 136.156 78.4111 135.667 78.7478 135.295C79.0844 134.923 79.5533 134.698 80.0541 134.668L170.086 131.013C170.588 130.993 171.077 131.17 171.449 131.507C171.82 131.844 172.046 132.313 172.076 132.813C172.096 133.313 171.92 133.801 171.585 134.173C171.25 134.544 170.783 134.771 170.284 134.803Z" fill="white"/>
<path opacity="0.9" d="M162.272 143.266L156.213 147.354L89.6969 150.055L80.3516 146.624C80.4293 146.615 80.5079 146.615 80.5857 146.624L162.272 143.266Z" fill="white"/>
<path opacity="0.9" d="M137.63 158.166V158.238C137.631 158.728 137.445 159.2 137.111 159.558C136.776 159.916 136.318 160.133 135.829 160.165L119.164 160.84L118.597 160.651L109.72 157.392L135.676 156.33C136.176 156.322 136.66 156.509 137.025 156.852C137.389 157.195 137.606 157.666 137.63 158.166Z" fill="white"/>
</g>
<path opacity="0.1" d="M179.638 102.607L158.102 101.68L148.64 79.1179L179.638 102.607Z" fill="#263238"/>
<path d="M179.638 102.607L158.741 99.033L148.64 79.1179L179.638 102.607Z" fill="#00E4A1"/>
<path opacity="0.1" d="M181.394 29.1772C180.845 27.8087 180.989 26.4762 181.718 26.1701C182.447 25.864 183.519 26.7463 184.032 28.1148C184.545 29.4833 184.437 30.8158 183.708 31.1129C182.978 31.41 181.943 30.5367 181.394 29.1772Z" fill="white"/>
<path d="M210.479 125.94C215.933 120.932 216.294 112.452 211.286 106.998C206.279 101.545 197.798 101.183 192.345 106.191C186.892 111.199 186.53 119.679 191.538 125.133C196.546 130.586 205.026 130.947 210.479 125.94Z" fill="#FF316D"/>
<path d="M204.073 109.594V123.099H200.345V114.258C199.795 114.682 199.207 115.056 198.59 115.374C197.904 115.7 197.193 115.971 196.465 116.184V113.168C197.522 112.866 198.513 112.372 199.391 111.71C200.083 111.14 200.64 110.424 201.02 109.612L204.073 109.594Z" fill="white"/>
</g>
<defs>
<clipPath id="clip0_104_252">
<rect width="252.09" height="280" fill="white"/>
</clipPath>
</defs>
</svg>
