<svg width="658" height="512" viewBox="0 0 658 512" fill="none" xmlns="http://www.w3.org/2000/svg">
<g clip-path="url(#clip0_610_193)">
<path d="M406.927 181C464.334 196.507 515.066 192.12 550.752 249.813C584.489 304.373 568.041 350.84 522.716 389.587C404.444 490.787 313.7 353.107 183.386 326.747C69.8799 303.76 57.2102 116.827 164.121 55.8667C198.579 36.2267 263.809 19.3734 298.187 48.8667C346.356 90.2 328.012 159.707 406.927 181Z" fill="#00E4A1"/>
<path opacity="0.9" d="M406.927 181C464.334 196.507 515.066 192.12 550.752 249.813C584.489 304.373 568.041 350.84 522.716 389.587C404.444 490.787 313.7 353.107 183.386 326.747C69.8799 303.76 57.2102 116.827 164.121 55.8667C198.579 36.2267 263.809 19.3734 298.187 48.8667C346.356 90.2 328.012 159.707 406.927 181Z" fill="white"/>
<path d="M329 511.413C471.961 511.413 587.853 504.656 587.853 496.32C587.853 487.984 471.961 481.227 329 481.227C186.039 481.227 70.1469 487.984 70.1469 496.32C70.1469 504.656 186.039 511.413 329 511.413Z" fill="#F5F5F5"/>
<path d="M176.951 462.333H104.418C102.719 462.316 101.096 461.63 99.9011 460.424C98.7062 459.218 98.036 457.59 98.0361 455.893V426.173C98.0393 424.655 98.5782 423.187 99.558 422.027L181.53 324.693C182.137 323.975 182.893 323.398 183.746 323.001C184.599 322.605 185.529 322.4 186.47 322.4H217.884C219.594 322.4 221.234 323.079 222.443 324.286C223.653 325.494 224.332 327.132 224.332 328.84V419.507C224.332 421.215 225.011 422.853 226.221 424.06C227.43 425.268 229.07 425.947 230.78 425.947H239.071C240.781 425.947 242.421 426.625 243.631 427.833C244.84 429.041 245.519 430.679 245.519 432.387V455.84C245.519 457.548 244.84 459.186 243.631 460.394C242.421 461.602 240.781 462.28 239.071 462.28H230.78C229.07 462.28 227.43 462.959 226.221 464.166C225.011 465.374 224.332 467.012 224.332 468.72V487.387C224.332 489.095 223.653 490.733 222.443 491.94C221.234 493.148 219.594 493.827 217.884 493.827H189.848C188.137 493.827 186.497 493.148 185.288 491.94C184.079 490.733 183.399 489.095 183.399 487.387V468.72C183.385 467.021 182.7 465.397 181.492 464.201C180.284 463.005 178.652 462.333 176.951 462.333V462.333ZM183.399 421.493V385.227C183.415 384.29 183.137 383.372 182.606 382.6C182.075 381.828 181.316 381.241 180.435 380.92C179.554 380.599 178.594 380.56 177.69 380.808C176.786 381.057 175.981 381.581 175.389 382.307L144.536 418.573C143.978 419.228 143.619 420.029 143.502 420.881C143.385 421.733 143.515 422.601 143.876 423.381C144.236 424.162 144.813 424.824 145.538 425.288C146.263 425.752 147.106 425.999 147.967 426H178.833C179.43 426.007 180.023 425.896 180.577 425.672C181.13 425.449 181.634 425.118 182.059 424.699C182.483 424.28 182.821 423.781 183.051 423.23C183.281 422.68 183.399 422.09 183.399 421.493V421.493Z" fill="#263238"/>
<path d="M260.071 408.88C260.071 376.88 265.857 354.458 277.427 341.613C288.997 328.769 306.589 322.369 330.202 322.413C341.558 322.413 350.904 323.813 358.238 326.613C364.866 329.001 370.936 332.718 376.074 337.533C380.407 341.658 384.077 346.425 386.955 351.667C389.807 357.153 391.955 362.977 393.35 369C396.536 381.863 398.123 395.069 398.076 408.32C398.076 438.907 392.891 461.289 382.522 475.467C372.153 489.644 354.313 496.756 329 496.8C314.759 496.8 303.282 494.538 294.569 490.013C285.691 485.416 278.216 478.517 272.928 470.04C268.852 463.818 265.683 455.329 263.422 444.573C261.082 432.822 259.96 420.861 260.071 408.88V408.88ZM306.585 408.987C306.585 430.453 308.485 445.12 312.285 452.987C316.086 460.853 321.59 464.787 328.8 464.787C331.092 464.809 333.366 464.377 335.49 463.516C337.614 462.656 339.547 461.384 341.176 459.773C344.674 456.44 347.246 451.169 348.892 443.96C350.539 436.751 351.362 425.524 351.362 410.28C351.362 387.907 349.462 372.867 345.661 365.16C341.861 357.453 336.165 353.6 328.573 353.6C320.812 353.6 315.209 357.529 311.765 365.387C308.32 373.244 306.593 387.778 306.585 408.987Z" fill="#263238"/>
<path d="M491.462 462.333H418.942C417.232 462.333 415.592 461.655 414.383 460.447C413.174 459.239 412.494 457.601 412.494 455.893V426.173C412.494 424.657 413.028 423.189 414.003 422.027L495.988 324.693C496.592 323.975 497.346 323.398 498.197 323.002C499.048 322.606 499.976 322.4 500.915 322.4H532.342C534.052 322.4 535.692 323.079 536.901 324.286C538.111 325.494 538.79 327.132 538.79 328.84V419.507C538.783 420.36 538.946 421.207 539.269 421.997C539.593 422.787 540.07 423.505 540.674 424.109C541.278 424.713 541.996 425.192 542.786 425.516C543.576 425.841 544.424 426.005 545.278 426H553.556C555.266 426 556.906 426.679 558.115 427.886C559.325 429.094 560.004 430.732 560.004 432.44V455.893C560.004 457.601 559.325 459.239 558.115 460.447C556.906 461.655 555.266 462.333 553.556 462.333H545.278C543.568 462.333 541.928 463.012 540.719 464.22C539.509 465.427 538.83 467.065 538.83 468.773V487.44C538.83 489.148 538.151 490.786 536.941 491.994C535.732 493.202 534.092 493.88 532.382 493.88H504.346C502.635 493.88 500.995 493.202 499.786 491.994C498.577 490.786 497.897 489.148 497.897 487.44V468.773C497.897 467.068 497.22 465.432 496.013 464.224C494.807 463.017 493.17 462.337 491.462 462.333V462.333ZM497.911 421.493V385.227C497.909 384.306 497.625 383.408 497.097 382.653C496.569 381.898 495.822 381.323 494.957 381.005C494.092 380.686 493.15 380.641 492.257 380.874C491.365 381.106 490.566 381.607 489.967 382.307L459.101 418.573C458.544 419.227 458.186 420.025 458.068 420.875C457.95 421.724 458.077 422.59 458.435 423.369C458.792 424.149 459.365 424.811 460.086 425.277C460.807 425.743 461.646 425.994 462.505 426H493.358C493.954 426.005 494.545 425.893 495.097 425.669C495.649 425.444 496.152 425.113 496.575 424.694C496.998 424.275 497.334 423.777 497.563 423.227C497.793 422.678 497.911 422.089 497.911 421.493V421.493Z" fill="#263238"/>
<path d="M205.935 339.84C204.693 342.507 203.385 344.907 202.117 347.387L198.379 354.787L194.64 362.213C193.385 364.707 192.09 367.2 190.555 369.653C190.785 366.796 191.336 363.974 192.197 361.24C193.016 358.486 194.075 355.809 195.361 353.24C196.643 350.668 198.162 348.222 199.901 345.933C201.619 343.632 203.65 341.581 205.935 339.84Z" fill="white"/>
<path d="M210.688 346.107C209.526 348.413 208.325 350.587 207.15 352.773L203.692 359.307L200.234 365.867C199.073 368.067 197.885 370.28 196.469 372.44C196.719 369.895 197.252 367.387 198.058 364.96C198.838 362.529 199.826 360.169 201.009 357.907C202.189 355.634 203.588 353.481 205.187 351.48C206.757 349.438 208.609 347.629 210.688 346.107Z" fill="white"/>
<path d="M197.711 337.213C196.683 339.613 195.588 341.867 194.52 344.133L191.383 350.92L188.246 357.72C187.177 360 186.096 362.293 184.788 364.547C184.91 361.966 185.327 359.407 186.029 356.92C186.698 354.422 187.592 351.99 188.699 349.653C189.775 347.316 191.067 345.084 192.558 342.987C194.004 340.836 195.738 338.894 197.711 337.213Z" fill="white"/>
<path d="M503.892 438.547C506.176 440.304 508.207 442.368 509.926 444.68C511.7 446.97 513.256 449.421 514.572 452C515.851 454.571 516.905 457.248 517.723 460C518.583 462.735 519.138 465.557 519.378 468.413C517.83 465.96 516.548 463.467 515.28 460.973L511.542 453.547L507.803 446.147C506.482 443.613 505.227 441.16 503.892 438.547Z" fill="white"/>
<path d="M499.192 444.813C501.258 446.331 503.105 448.125 504.679 450.147C506.28 452.151 507.68 454.308 508.858 456.587C510.052 458.844 511.04 461.205 511.809 463.64C512.625 466.065 513.163 468.574 513.411 471.12C511.996 468.96 510.807 466.747 509.632 464.547L506.175 457.987L502.717 451.453C501.542 449.333 500.341 447.12 499.192 444.813Z" fill="white"/>
<path d="M512.156 435.92C514.154 437.584 515.915 439.513 517.389 441.653C518.88 443.748 520.168 445.981 521.234 448.32C522.335 450.66 523.229 453.091 523.904 455.587C524.6 458.075 525.017 460.633 525.146 463.213C523.811 460.947 522.743 458.667 521.688 456.387L518.551 449.573L515.413 442.8C514.292 440.573 513.237 438.32 512.156 435.92Z" fill="white"/>
<path d="M394.578 476.827H412.307V481.333H401.213V484.733H411.506V489.093H401.213V493.333H412.628V498.173H394.578V476.827Z" fill="#00E4A1"/>
<path d="M412.628 500.787H394.578C393.894 500.787 393.239 500.516 392.756 500.033C392.272 499.55 392.001 498.896 392.001 498.213V476.88C391.999 476.542 392.065 476.206 392.194 475.893C392.322 475.58 392.512 475.296 392.752 475.056C392.991 474.817 393.276 474.628 393.59 474.499C393.903 474.37 394.239 474.305 394.578 474.307H412.307C412.646 474.305 412.982 474.37 413.295 474.499C413.609 474.628 413.893 474.817 414.133 475.056C414.373 475.296 414.562 475.58 414.691 475.893C414.82 476.206 414.886 476.542 414.884 476.88V481.333C414.346 481.696 413.966 482.247 413.817 482.877C413.669 483.507 413.764 484.17 414.083 484.733V489.093C413.786 489.413 413.574 489.803 413.468 490.227C413.363 490.65 413.366 491.093 413.478 491.515C413.59 491.937 413.807 492.324 414.109 492.639C414.41 492.955 414.787 493.189 415.204 493.32V498.16C415.211 498.502 415.15 498.843 415.024 499.161C414.897 499.48 414.709 499.77 414.469 500.014C414.229 500.259 413.942 500.453 413.626 500.586C413.31 500.718 412.97 500.787 412.628 500.787ZM397.154 495.64H399.998C399.59 495.419 399.25 495.092 399.015 494.692C398.78 494.293 398.658 493.837 398.663 493.373V489.147C399.03 488.913 399.331 488.591 399.54 488.21C399.749 487.829 399.859 487.401 399.859 486.967C399.859 486.532 399.749 486.105 399.54 485.724C399.331 485.343 399.03 485.02 398.663 484.787V481.333C398.663 480.953 398.748 480.577 398.912 480.233C399.076 479.889 399.315 479.587 399.611 479.347H397.181L397.154 495.64Z" fill="#00E4A1"/>
<path d="M416.286 498.213V476.88H427.313C428.892 476.824 430.471 476.999 431.999 477.4C433.086 477.724 434.029 478.412 434.669 479.347C435.144 480.025 435.474 480.794 435.637 481.606C435.801 482.418 435.796 483.254 435.622 484.063C435.448 484.873 435.109 485.638 434.625 486.31C434.142 486.983 433.525 487.549 432.814 487.973C432.09 488.379 431.305 488.667 430.491 488.827C431.099 489.006 431.679 489.271 432.213 489.613C432.608 489.943 432.963 490.319 433.268 490.733C433.617 491.15 433.93 491.596 434.202 492.067L437.406 498.267H429.93L426.392 491.733C426.108 491.106 425.699 490.544 425.19 490.08C424.717 489.75 424.152 489.578 423.575 489.587H422.988V498.267L416.286 498.213ZM422.961 485.493H425.751C426.341 485.443 426.926 485.345 427.5 485.2C427.934 485.118 428.32 484.875 428.581 484.52C428.887 484.098 429.031 483.581 428.987 483.062C428.943 482.543 428.714 482.058 428.341 481.693C427.599 481.249 426.732 481.058 425.871 481.147H422.961V485.493Z" fill="#00E4A1"/>
<path d="M437.353 500.787H429.876C429.413 500.787 428.958 500.664 428.559 500.429C428.16 500.195 427.831 499.858 427.607 499.453L425.511 495.56V498.227C425.507 498.908 425.235 499.561 424.752 500.042C424.27 500.524 423.616 500.796 422.934 500.8H416.259C415.92 500.8 415.585 500.733 415.273 500.604C414.96 500.475 414.676 500.285 414.437 500.046C414.198 499.807 414.008 499.524 413.878 499.211C413.749 498.899 413.682 498.565 413.682 498.227V476.893C413.68 476.555 413.746 476.219 413.875 475.906C414.004 475.593 414.193 475.309 414.433 475.07C414.673 474.83 414.957 474.641 415.271 474.512C415.584 474.384 415.92 474.318 416.259 474.32H427.286C429.138 474.257 430.988 474.477 432.773 474.973C434.371 475.482 435.753 476.51 436.698 477.893C437.689 479.345 438.198 481.071 438.154 482.827C438.183 484.357 437.8 485.867 437.046 487.2C436.587 487.985 436.001 488.688 435.31 489.28C435.733 489.793 436.104 490.347 436.418 490.933L439.609 497.093C439.813 497.485 439.912 497.923 439.898 498.365C439.883 498.806 439.755 499.237 439.526 499.614C439.296 499.992 438.974 500.304 438.588 500.521C438.203 500.738 437.768 500.853 437.326 500.853L437.353 500.787ZM431.412 495.64H433.134L431.799 493.2C431.622 492.873 431.407 492.569 431.158 492.293C430.972 492.055 430.771 491.828 430.557 491.613C430.243 491.445 429.912 491.311 429.569 491.213C429.24 491.1 428.936 490.923 428.675 490.693L431.412 495.64ZM418.862 495.64H420.357V489.533C420.357 489.143 420.446 488.757 420.617 488.406C420.789 488.055 421.038 487.747 421.345 487.507C421.038 487.269 420.789 486.963 420.618 486.614C420.446 486.265 420.357 485.882 420.357 485.493V481.147C420.358 480.5 420.601 479.877 421.038 479.4H418.862V495.64ZM426.686 487.973C427.17 488.347 427.589 488.797 427.927 489.307C427.878 489.083 427.855 488.855 427.86 488.627C427.885 488.3 427.966 487.979 428.101 487.68H427.981C427.473 487.84 427.046 487.92 426.686 488V487.973ZM429.663 479.507L429.97 479.733C430.484 480.167 430.893 480.711 431.166 481.326C431.439 481.94 431.568 482.608 431.545 483.28C431.552 484.287 431.223 485.267 430.611 486.067C430.897 485.989 431.171 485.873 431.425 485.72C431.923 485.431 432.34 485.024 432.64 484.533C432.928 483.988 433.066 483.376 433.04 482.76C433.077 482.058 432.89 481.363 432.506 480.773C432.191 480.298 431.719 479.949 431.171 479.787C430.678 479.649 430.173 479.555 429.663 479.507V479.507Z" fill="#00E4A1"/>
<path d="M439.556 498.213V476.88H450.583C452.167 476.823 453.75 476.998 455.282 477.4C456.37 477.722 457.314 478.41 457.953 479.347C458.427 480.025 458.757 480.794 458.921 481.606C459.085 482.418 459.079 483.254 458.905 484.063C458.731 484.873 458.392 485.638 457.909 486.31C457.425 486.983 456.809 487.549 456.097 487.973C455.373 488.379 454.589 488.667 453.774 488.827C454.382 489.006 454.962 489.271 455.496 489.613C455.897 489.941 456.256 490.318 456.564 490.733C456.906 491.153 457.214 491.599 457.485 492.067L460.689 498.267H453.16L449.622 491.733C449.343 491.104 448.933 490.54 448.42 490.08C447.949 489.745 447.383 489.572 446.805 489.587H446.217V498.267L439.556 498.213ZM446.231 485.493H449.021C449.611 485.444 450.196 485.346 450.77 485.2C451.203 485.118 451.59 484.875 451.851 484.52C452.129 484.167 452.276 483.729 452.265 483.28C452.283 482.983 452.233 482.687 452.12 482.412C452.007 482.137 451.833 481.892 451.611 481.693C450.869 481.249 450.002 481.058 449.141 481.147H446.231V485.493Z" fill="#00E4A1"/>
<path d="M460.623 500.787H453.16C452.697 500.787 452.242 500.664 451.843 500.429C451.443 500.195 451.115 499.858 450.89 499.453L448.794 495.56V498.227C448.794 498.909 448.523 499.564 448.039 500.046C447.556 500.529 446.901 500.8 446.217 500.8H439.542C438.86 500.796 438.207 500.524 437.724 500.042C437.242 499.561 436.969 498.908 436.966 498.227V476.893C436.966 476.211 437.237 475.556 437.72 475.074C438.203 474.591 438.859 474.32 439.542 474.32H450.57C452.421 474.256 454.272 474.477 456.057 474.973C457.661 475.478 459.048 476.506 459.995 477.893C460.891 479.273 461.395 480.87 461.454 482.514C461.512 484.157 461.124 485.786 460.329 487.227C459.871 488.008 459.29 488.711 458.607 489.307C459.025 489.823 459.396 490.377 459.715 490.96L462.892 497.12C463.096 497.512 463.196 497.95 463.181 498.391C463.167 498.833 463.039 499.263 462.809 499.641C462.58 500.019 462.257 500.331 461.872 500.548C461.486 500.765 461.052 500.879 460.609 500.88L460.623 500.787ZM454.682 495.64H456.404L455.136 493.2C454.943 492.88 454.725 492.577 454.481 492.293C454.305 492.046 454.104 491.819 453.881 491.613V491.613C453.566 491.445 453.235 491.311 452.893 491.213C452.568 491.098 452.269 490.922 452.012 490.693L454.682 495.64ZM442.132 495.64H443.627V489.533C443.627 489.143 443.716 488.757 443.887 488.406C444.059 488.055 444.308 487.747 444.615 487.507C444.308 487.269 444.059 486.963 443.888 486.614C443.716 486.265 443.627 485.882 443.627 485.493V481.147C443.627 480.497 443.876 479.872 444.322 479.4H442.132V495.64ZM449.956 488C450.44 488.373 450.859 488.824 451.197 489.333C451.164 489.108 451.164 488.879 451.197 488.653C451.211 488.326 451.288 488.005 451.424 487.707H451.317C450.743 487.84 450.316 487.92 449.956 488ZM452.946 479.533L453.24 479.76C453.754 480.194 454.163 480.738 454.436 481.352C454.709 481.967 454.839 482.635 454.815 483.307C454.822 484.313 454.493 485.294 453.881 486.093C454.171 486.015 454.449 485.899 454.708 485.747C455.202 485.458 455.615 485.05 455.91 484.56C456.198 484.015 456.336 483.403 456.31 482.787C456.347 482.085 456.16 481.389 455.776 480.8C455.461 480.325 454.989 479.975 454.441 479.813C453.953 479.667 453.453 479.565 452.946 479.507V479.533Z" fill="#00E4A1"/>
<path d="M461.397 487.533C461.25 486.044 461.435 484.541 461.939 483.132C462.443 481.723 463.253 480.443 464.311 479.383C465.369 478.324 466.649 477.512 468.059 477.005C469.469 476.499 470.973 476.31 472.465 476.453C473.96 476.358 475.459 476.563 476.873 477.055C478.288 477.547 479.59 478.317 480.702 479.32C481.697 480.391 482.465 481.652 482.961 483.026C483.456 484.401 483.669 485.861 483.586 487.32C483.668 489.44 483.237 491.548 482.331 493.467C481.506 495.043 480.233 496.342 478.673 497.2C476.836 498.149 474.785 498.608 472.718 498.533C470.66 498.602 468.612 498.21 466.724 497.387C465.102 496.585 463.762 495.311 462.879 493.733C461.838 491.836 461.326 489.695 461.397 487.533V487.533ZM468.072 487.533C467.926 489.176 468.35 490.819 469.274 492.187C469.7 492.629 470.211 492.981 470.776 493.221C471.342 493.462 471.95 493.586 472.565 493.586C473.179 493.586 473.788 493.462 474.353 493.221C474.918 492.981 475.43 492.629 475.856 492.187C476.788 490.704 477.201 488.955 477.03 487.213C477.156 485.643 476.721 484.08 475.802 482.8C475.383 482.348 474.868 481.994 474.296 481.764C473.724 481.533 473.107 481.432 472.491 481.467C471.885 481.444 471.281 481.56 470.726 481.805C470.171 482.05 469.679 482.417 469.287 482.88C468.332 484.245 467.884 485.9 468.019 487.56L468.072 487.533Z" fill="#00E4A1"/>
<path d="M472.718 501.147C470.27 501.216 467.838 500.733 465.602 499.733C463.522 498.717 461.8 497.095 460.663 495.08C459.374 492.778 458.737 490.169 458.82 487.533C458.917 484.834 459.783 482.219 461.317 479.995C462.85 477.771 464.987 476.03 467.477 474.977C469.968 473.924 472.707 473.603 475.373 474.051C478.04 474.499 480.523 475.698 482.531 477.507C483.777 478.816 484.744 480.364 485.373 482.058C486.002 483.752 486.279 485.556 486.189 487.36C486.272 489.899 485.736 492.42 484.627 494.707C483.576 496.724 481.95 498.386 479.954 499.48C477.727 500.65 475.234 501.224 472.718 501.147V501.147ZM474.52 479.16C475.755 479.498 476.86 480.194 477.698 481.16C479.052 482.896 479.713 485.072 479.554 487.267C479.554 490.32 478.98 492.48 477.791 493.933C477.029 494.836 476.031 495.51 474.908 495.88C475.792 495.751 476.646 495.466 477.431 495.04C478.566 494.436 479.496 493.507 480.101 492.373C480.817 490.826 481.151 489.13 481.076 487.427C481.159 486.301 481.013 485.169 480.645 484.101C480.278 483.033 479.698 482.051 478.939 481.213C477.736 480.058 476.181 479.335 474.52 479.16V479.16ZM470.395 479.16C468.796 479.353 467.305 480.065 466.15 481.187C465.379 482.041 464.79 483.043 464.419 484.132C464.047 485.221 463.9 486.373 463.987 487.52C463.912 489.235 464.299 490.939 465.108 492.453C465.729 493.603 466.689 494.534 467.859 495.12C468.541 495.441 469.264 495.67 470.008 495.8C468.945 495.413 468.002 494.756 467.271 493.893C466.081 491.995 465.449 489.8 465.449 487.56C465.449 485.32 466.081 483.125 467.271 481.227C468.083 480.252 469.165 479.538 470.382 479.173L470.395 479.16ZM472.451 484.027C472.217 484.003 471.98 484.037 471.761 484.125C471.542 484.214 471.349 484.354 471.196 484.533C470.685 485.45 470.48 486.505 470.609 487.547C470.479 488.579 470.685 489.626 471.196 490.533C471.36 490.72 471.568 490.864 471.801 490.953C472.033 491.041 472.284 491.071 472.531 491.04C473.466 491.04 473.733 490.733 473.866 490.573C474 490.413 474.427 489.827 474.427 487.253C474.533 486.324 474.326 485.386 473.84 484.587C473.671 484.382 473.456 484.222 473.211 484.12C472.967 484.018 472.702 483.977 472.438 484L472.451 484.027Z" fill="#00E4A1"/>
<path d="M487.244 498.213V476.88H498.271C499.85 476.824 501.429 476.999 502.957 477.4C504.044 477.724 504.987 478.412 505.627 479.347C506.102 480.025 506.432 480.794 506.595 481.606C506.759 482.418 506.754 483.254 506.58 484.063C506.406 484.873 506.067 485.638 505.583 486.31C505.1 486.983 504.483 487.549 503.772 487.973C503.048 488.379 502.263 488.667 501.449 488.827C502.057 489.006 502.637 489.271 503.171 489.613C503.566 489.943 503.921 490.319 504.226 490.733C504.575 491.15 504.888 491.596 505.16 492.067L508.364 498.267H500.888L497.35 491.733C497.066 491.106 496.657 490.544 496.148 490.08C495.675 489.75 495.11 489.578 494.533 489.587H493.946V498.267L487.244 498.213ZM493.919 485.493H496.709C497.299 485.443 497.884 485.345 498.458 485.2C498.892 485.118 499.278 484.875 499.539 484.52C499.845 484.098 499.989 483.581 499.945 483.062C499.901 482.543 499.672 482.058 499.299 481.693C498.557 481.249 497.69 481.058 496.829 481.147H493.919V485.493Z" fill="#00E4A1"/>
<path d="M508.311 500.787H500.834C500.371 500.787 499.916 500.664 499.517 500.429C499.118 500.195 498.789 499.858 498.565 499.453L496.469 495.56V498.227C496.465 498.908 496.193 499.561 495.71 500.042C495.228 500.524 494.574 500.796 493.892 500.8H487.217C486.533 500.8 485.878 500.529 485.395 500.046C484.912 499.564 484.64 498.909 484.64 498.227V476.893C484.638 476.555 484.704 476.219 484.833 475.906C484.962 475.593 485.151 475.309 485.391 475.07C485.631 474.83 485.915 474.641 486.229 474.512C486.542 474.384 486.878 474.318 487.217 474.32H498.244C500.096 474.257 501.946 474.477 503.731 474.973C505.329 475.482 506.711 476.51 507.656 477.893C508.652 479.343 509.165 481.069 509.125 482.827C509.151 484.358 508.764 485.869 508.004 487.2C507.545 487.985 506.959 488.688 506.268 489.28C506.691 489.793 507.062 490.347 507.376 490.933L510.567 497.093C510.771 497.485 510.87 497.923 510.856 498.365C510.841 498.806 510.713 499.237 510.484 499.614C510.254 499.992 509.932 500.304 509.546 500.521C509.161 500.738 508.726 500.853 508.284 500.853L508.311 500.787ZM502.37 495.64H504.079L502.824 493.2C502.631 492.88 502.412 492.577 502.169 492.293C501.983 492.055 501.782 491.828 501.569 491.613V491.613C501.254 491.445 500.923 491.311 500.581 491.213C500.251 491.1 499.948 490.923 499.686 490.693L502.37 495.64ZM489.82 495.64H491.315V489.533C491.315 489.143 491.404 488.757 491.575 488.406C491.747 488.055 491.996 487.747 492.303 487.507C491.996 487.269 491.747 486.963 491.576 486.614C491.404 486.265 491.315 485.882 491.315 485.493V481.147C491.31 480.499 491.554 479.874 491.996 479.4H489.82V495.64ZM497.644 487.973C498.128 488.347 498.547 488.797 498.885 489.307C498.852 489.081 498.852 488.852 498.885 488.627C498.899 488.299 498.976 487.978 499.112 487.68H498.992C498.431 487.84 498.004 487.92 497.644 488V487.973ZM500.634 479.507L500.928 479.733C501.442 480.167 501.851 480.711 502.124 481.326C502.397 481.94 502.526 482.608 502.503 483.28C502.51 484.287 502.181 485.267 501.569 486.067C502.411 485.83 503.132 485.282 503.585 484.533C503.875 483.945 504.016 483.294 503.995 482.638C503.974 481.983 503.792 481.342 503.464 480.773C503.149 480.298 502.677 479.949 502.129 479.787C501.64 479.65 501.14 479.556 500.634 479.507V479.507Z" fill="#00E4A1"/>
<path d="M394.578 476.827H412.307V481.333H401.213V484.733H411.506V489.093H401.213V493.333H412.628V498.173H394.578V476.827Z" fill="white"/>
<path d="M416.286 498.213V476.88H427.313C428.892 476.824 430.471 476.999 431.999 477.4C433.086 477.724 434.029 478.412 434.669 479.347C435.144 480.025 435.474 480.794 435.637 481.606C435.801 482.418 435.796 483.254 435.622 484.063C435.448 484.873 435.109 485.638 434.625 486.31C434.142 486.983 433.525 487.549 432.814 487.973C432.09 488.379 431.305 488.667 430.491 488.827C431.099 489.006 431.679 489.271 432.213 489.613C432.608 489.943 432.963 490.319 433.268 490.733C433.617 491.15 433.93 491.596 434.202 492.067L437.406 498.267H429.93L426.392 491.733C426.108 491.106 425.699 490.544 425.19 490.08C424.717 489.75 424.152 489.578 423.575 489.587H422.988V498.267L416.286 498.213ZM422.961 485.493H425.751C426.341 485.443 426.926 485.345 427.5 485.2C427.934 485.118 428.32 484.875 428.581 484.52C428.887 484.098 429.031 483.581 428.987 483.062C428.943 482.543 428.714 482.058 428.341 481.693C427.599 481.249 426.732 481.058 425.871 481.147H422.961V485.493Z" fill="white"/>
<path d="M439.556 498.213V476.88H450.583C452.167 476.823 453.75 476.998 455.282 477.4C456.37 477.722 457.314 478.41 457.953 479.347C458.427 480.025 458.757 480.794 458.921 481.606C459.085 482.418 459.079 483.254 458.905 484.063C458.731 484.873 458.392 485.638 457.909 486.31C457.425 486.983 456.809 487.549 456.097 487.973C455.373 488.379 454.589 488.667 453.774 488.827C454.382 489.006 454.962 489.271 455.496 489.613C455.897 489.941 456.256 490.318 456.564 490.733C456.906 491.153 457.214 491.599 457.485 492.067L460.689 498.267H453.16L449.622 491.733C449.343 491.104 448.933 490.54 448.42 490.08C447.949 489.745 447.383 489.572 446.805 489.587H446.217V498.267L439.556 498.213ZM446.231 485.493H449.021C449.611 485.444 450.196 485.346 450.77 485.2C451.203 485.118 451.59 484.875 451.851 484.52C452.129 484.167 452.276 483.729 452.265 483.28C452.283 482.983 452.233 482.687 452.12 482.412C452.007 482.137 451.833 481.892 451.611 481.693C450.869 481.249 450.002 481.058 449.141 481.147H446.231V485.493Z" fill="white"/>
<path d="M461.397 487.533C461.25 486.044 461.435 484.541 461.939 483.132C462.443 481.723 463.253 480.443 464.311 479.383C465.369 478.324 466.649 477.512 468.059 477.005C469.469 476.499 470.973 476.31 472.465 476.453C473.96 476.358 475.459 476.563 476.873 477.055C478.288 477.547 479.59 478.317 480.702 479.32C481.697 480.391 482.465 481.652 482.961 483.026C483.456 484.401 483.669 485.861 483.586 487.32C483.668 489.44 483.237 491.548 482.331 493.467C481.506 495.043 480.233 496.342 478.673 497.2C476.836 498.149 474.785 498.608 472.718 498.533C470.66 498.602 468.612 498.21 466.724 497.387C465.102 496.585 463.762 495.311 462.879 493.733C461.838 491.836 461.326 489.695 461.397 487.533V487.533ZM468.072 487.533C467.926 489.176 468.35 490.819 469.274 492.187C469.7 492.629 470.211 492.981 470.776 493.221C471.342 493.462 471.95 493.586 472.565 493.586C473.179 493.586 473.788 493.462 474.353 493.221C474.918 492.981 475.43 492.629 475.856 492.187C476.788 490.704 477.201 488.955 477.03 487.213C477.156 485.643 476.721 484.08 475.802 482.8C475.383 482.348 474.868 481.994 474.296 481.764C473.724 481.533 473.107 481.432 472.491 481.467C471.885 481.444 471.281 481.56 470.726 481.805C470.171 482.05 469.679 482.417 469.287 482.88C468.332 484.245 467.884 485.9 468.019 487.56L468.072 487.533Z" fill="white"/>
<path d="M487.244 498.213V476.88H498.271C499.85 476.824 501.429 476.999 502.957 477.4C504.044 477.724 504.987 478.412 505.627 479.347C506.102 480.025 506.432 480.794 506.595 481.606C506.759 482.418 506.754 483.254 506.58 484.063C506.406 484.873 506.067 485.638 505.583 486.31C505.1 486.983 504.483 487.549 503.772 487.973C503.048 488.379 502.263 488.667 501.449 488.827C502.057 489.006 502.637 489.271 503.171 489.613C503.566 489.943 503.921 490.319 504.226 490.733C504.575 491.15 504.888 491.596 505.16 492.067L508.364 498.267H500.888L497.35 491.733C497.066 491.106 496.657 490.544 496.148 490.08C495.675 489.75 495.11 489.578 494.533 489.587H493.946V498.267L487.244 498.213ZM493.919 485.493H496.709C497.299 485.443 497.884 485.345 498.458 485.2C498.892 485.118 499.278 484.875 499.539 484.52C499.845 484.098 499.989 483.581 499.945 483.062C499.901 482.543 499.672 482.058 499.299 481.693C498.557 481.249 497.69 481.058 496.829 481.147H493.919V485.493Z" fill="white"/>
<path d="M564.637 149.707C559.027 147.926 553.166 147.066 547.281 147.16C541.567 147.193 535.909 148.283 530.593 150.373C528.36 151.249 526.261 152.434 524.358 153.893C524.171 154.053 523.958 154.2 523.811 154.347C523.664 154.493 523.517 154.6 523.277 154.853C523.036 155.107 522.409 155.747 521.942 156.187C521.089 157.153 520.3 158.172 519.579 159.24C516.595 163.621 514.701 168.649 514.051 173.907C513.734 176.397 513.765 178.919 514.145 181.4C514.323 182.567 514.596 183.717 514.959 184.84C515.322 185.965 515.768 187.061 516.294 188.12C517.758 190.859 519.413 193.492 521.247 196C523.29 198.907 525.653 202.08 527.923 205.96C530.563 210.257 532.446 214.974 533.49 219.907C534.022 222.682 534.219 225.511 534.077 228.333C533.918 231.101 533.429 233.84 532.622 236.493C531.064 241.576 528.473 246.282 525.012 250.32C523.305 252.304 521.404 254.112 519.338 255.72C517.343 257.288 515.207 258.667 512.957 259.84C508.614 262.077 503.947 263.62 499.126 264.413C494.614 265.16 490.03 265.374 485.468 265.053C481.118 264.745 476.806 264.04 472.585 262.947C468.62 261.92 464.719 260.66 460.903 259.173C453.48 256.333 446.752 253.08 440.33 250.32C434.382 247.593 428.161 245.501 421.773 244.08C418.877 243.493 415.929 243.198 412.975 243.2C409.978 243.209 406.988 243.495 404.043 244.053C397.835 245.319 391.833 247.437 386.207 250.347C374.539 256.227 363.751 265.187 352.59 274.573C350.571 276.278 347.959 277.115 345.324 276.904C342.688 276.692 340.244 275.448 338.523 273.443C336.803 271.438 335.947 268.835 336.141 266.201C336.335 263.568 337.564 261.118 339.56 259.387C350.574 249.8 362.176 239.52 376.568 231.84C383.885 227.878 391.722 224.96 399.851 223.173C404.081 222.281 408.385 221.785 412.708 221.693C417.079 221.596 421.449 221.94 425.751 222.72C433.706 224.274 441.471 226.675 448.914 229.88C455.99 232.773 462.518 235.747 468.82 238.013C471.843 239.125 474.927 240.059 478.058 240.813C480.941 241.506 483.882 241.925 486.843 242.067C492.049 242.491 497.272 241.481 501.943 239.147C502.924 238.601 503.853 237.967 504.719 237.253C505.526 236.592 506.268 235.855 506.936 235.053C508.216 233.483 509.161 231.668 509.712 229.72C509.96 228.852 510.095 227.956 510.113 227.053C510.135 226.22 510.054 225.387 509.873 224.573C509.293 222.369 508.355 220.274 507.096 218.373C505.614 215.973 503.585 213.28 501.355 210.253C498.782 206.87 496.457 203.305 494.399 199.587C493.235 197.406 492.235 195.142 491.409 192.813C490.601 190.474 489.976 188.076 489.54 185.64C488.694 180.901 488.51 176.069 488.993 171.28C489.924 161.945 493.083 152.97 498.204 145.107C499.492 143.117 500.906 141.211 502.436 139.4C503.224 138.493 504.025 137.6 504.866 136.733C505.253 136.32 505.814 135.8 506.308 135.333C506.802 134.867 507.323 134.44 507.83 134C511.644 130.882 515.888 128.331 520.433 126.427C528.707 122.968 537.553 121.078 546.52 120.853C555.279 120.575 564.025 121.714 572.42 124.227C575.601 125.4 578.217 127.738 579.735 130.768C581.252 133.797 581.559 137.289 580.592 140.536C579.625 143.782 577.457 146.54 574.528 148.248C571.6 149.956 568.13 150.487 564.823 149.733L564.637 149.707Z" fill="#263238"/>
<path d="M564.316 150.787C557.142 148.358 549.54 147.45 541.994 148.12C538.354 148.451 534.768 149.221 531.314 150.413C528.455 151.388 525.783 152.839 523.41 154.707L522.649 155.36C520.133 157.667 516.803 158.882 513.39 158.737C509.978 158.592 506.763 157.099 504.452 154.587C502.142 152.074 500.926 148.748 501.071 145.34C501.216 141.932 502.711 138.721 505.227 136.413C509.903 131.845 515.421 128.223 521.474 125.747C526.923 123.478 532.631 121.888 538.47 121.013C549.925 119.333 561.606 120.078 572.754 123.2C576.454 124.211 579.6 126.649 581.5 129.977C583.401 133.306 583.899 137.251 582.887 140.947C581.874 144.642 579.433 147.784 576.101 149.682C572.768 151.58 568.817 152.078 565.117 151.067L564.41 150.853L564.316 150.787Z" fill="#00E4A1"/>
<path d="M315.382 315.8L320.335 323.507C315.356 326.107 310.149 325.72 304.836 325.72C302.579 315.293 315.382 315.8 315.382 315.8Z" fill="#263238"/>
<path d="M285.197 274.667C291.512 292.813 314.928 316.88 314.928 316.88C314.928 316.88 305.049 318.853 307.733 325.667H321.524L351.215 320.08C352.206 319.85 353.071 319.252 353.637 318.407C354.202 317.563 354.425 316.535 354.259 315.533L343.298 278.813L285.197 274.667Z" fill="#00E4A1"/>
<path d="M400.372 285.053L403.042 295.867C408.275 293.8 412.694 292.387 414.964 287.533C412.334 280.787 400.372 285.053 400.372 285.053Z" fill="#263238"/>
<path d="M376.928 229.573C386.274 246.293 405.979 287.067 405.979 287.067C405.979 287.067 416.099 287.493 414.75 294.6L375.513 304.28C374.638 304.583 373.688 304.589 372.809 304.297C371.93 304.006 371.173 303.432 370.654 302.667L342.618 278.96C357.917 269.627 375.727 245.133 376.928 229.573Z" fill="#00E4A1"/>
<path opacity="0.1" d="M358.745 264.653C354.15 270.209 348.75 275.049 342.724 279.013L350.735 285.533C359.372 277.813 361.829 269.547 358.745 264.653Z" fill="black"/>
<path d="M348.759 181.027C359.653 182.88 404.898 176.747 408.262 176.587C408.622 174.093 409.771 167.92 412.481 169.013C415.191 170.107 416.579 174.773 416.032 177.013C422.454 175.867 430.891 189.013 421.292 199.68C407.234 215.44 355.875 217.853 355.875 217.853C355.875 217.853 328.012 183.64 348.759 181.027Z" fill="#00E4A1"/>
<path opacity="0.1" d="M352.15 202C349.979 201.76 347.782 202.001 345.715 202.707C348.695 208.019 352.097 213.084 355.888 217.853C355.888 217.853 366.248 217.36 378.931 215.413C371.949 210.427 360.881 203.4 352.15 202Z" fill="black"/>
<path d="M416.032 176.973C422.52 174.307 427.06 172.973 428.555 175.2C430.05 177.427 428.047 182.107 421.773 183.32C416.019 179.72 416.032 176.973 416.032 176.973Z" fill="#00E4A1"/>
<path d="M420.251 182.52C427.086 182.293 431.665 182.693 432.266 185.187C432.867 187.68 429.423 191.307 423.308 190.253C419.29 185.027 420.251 182.52 420.251 182.52Z" fill="#00E4A1"/>
<path d="M424.563 189.493C428.955 191.533 431.652 193.32 430.851 195.467C430.05 197.613 426.245 199.267 422.841 196.467C422.801 191.107 424.563 189.493 424.563 189.493Z" fill="#00E4A1"/>
<path d="M265.118 215.12C260.098 224.947 228.11 257.48 225.961 260.093C223.745 258.88 218.111 256.093 217.376 258.933C216.642 261.773 219.539 265.667 221.622 266.533C216.869 270.987 222.329 285.587 236.708 284.333C257.762 282.493 290.404 242.853 290.404 242.853C290.404 242.853 279.603 200.067 265.118 215.12Z" fill="#00E4A1"/>
<path opacity="0.1" d="M279.91 230.373C281.026 228.497 282.533 226.883 284.329 225.64C286.816 231.205 288.847 236.961 290.404 242.853C290.404 242.853 283.822 250.853 274.663 259.827C274.837 251.267 275.811 238.2 279.91 230.373Z" fill="black"/>
<path d="M221.622 266.533C215.574 270.107 211.822 272.973 212.717 275.493C213.611 278.013 218.565 279.227 223.291 274.933C223.838 268.173 221.622 266.533 221.622 266.533Z" fill="#00E4A1"/>
<path d="M223.531 273.24C219.259 278.573 216.856 282.467 218.538 284.453C220.22 286.44 225.133 285.787 227.95 280.293C226.201 273.96 223.531 273.24 223.531 273.24Z" fill="#00E4A1"/>
<path d="M226.575 280.853C225.573 285.587 225.4 288.853 227.616 289.467C229.832 290.08 233.41 288.053 233.17 283.68C228.871 280.413 226.575 280.853 226.575 280.853Z" fill="#00E4A1"/>
<path opacity="0.1" d="M343.325 278.947V278.867L325.569 277.533C325.208 285.173 334.113 290.013 346.075 287.96L343.325 278.947Z" fill="black"/>
<path d="M346.609 187.16L309.975 202.827L273.355 218.493C273.355 218.493 277.253 265.773 289.269 281.973C301.284 298.173 324.487 293.187 344.98 284.413C365.474 275.64 385.032 262.32 381.641 242.453C378.25 222.587 346.609 187.16 346.609 187.16Z" fill="#00E4A1"/>
<path opacity="0.2" d="M330.669 196L310.723 204.533L290.791 213.067C291.085 209.187 282.941 245.28 296.825 264.52C305.877 277.053 322.779 273.613 337.638 267.253C352.497 260.893 366.635 251.053 363.791 235.867C359.439 212.573 327.665 193.573 330.669 196Z" fill="white"/>
<path opacity="0.2" d="M324.327 201.627L310.977 207.307L297.693 213C297.786 210.2 293.181 236.16 303.033 250.453C309.482 259.787 320.843 257.707 330.749 253.467C340.655 249.227 350 242.44 347.691 231.347C344.233 214.347 322.218 199.773 324.327 201.627Z" fill="white"/>
<path opacity="0.2" d="M230.911 279.127C233.436 278.115 234.422 274.653 233.112 271.393C231.803 268.133 228.694 266.31 226.169 267.322C223.644 268.334 222.659 271.796 223.968 275.056C225.278 278.316 228.386 280.139 230.911 279.127Z" fill="white"/>
<path opacity="0.2" d="M421.759 189.12C422.013 192.627 420.024 195.627 417.314 195.787C414.603 195.947 412.187 193.307 411.973 189.813C411.76 186.32 413.709 183.307 416.419 183.147C419.129 182.987 421.506 185.627 421.759 189.12Z" fill="white"/>
<path d="M229.792 101.333C176.564 63.7066 94.7785 86.7866 88.3569 101C81.5348 116.133 155.603 156.893 173.8 196.28C200.368 146.987 229.792 101.333 229.792 101.333Z" fill="#263238"/>
<path opacity="0.5" d="M210.18 116.76C168.046 87.4266 108.636 100.627 104.791 110.627C100.693 121.293 158.567 153.76 174.735 182.96C191.223 148.493 210.18 116.76 210.18 116.76Z" fill="#00E4A1"/>
<path d="M215.427 109.64C203.492 110.44 193.385 114.44 184.481 123.827C188.493 122.542 192.77 122.315 196.896 123.168C201.023 124.02 204.858 125.924 208.031 128.693L215.427 109.64Z" fill="#263238"/>
<path d="M293.488 74.0666C319.067 -6.5467 410.171 -6.8667 428.328 5.3333C442.119 14.6666 383.39 51.9066 399.13 105.667C346.155 87.56 293.488 74.0666 293.488 74.0666Z" fill="#263238"/>
<path opacity="0.5" d="M317.559 72.32C338.919 25.6533 388.744 6.98663 412.013 11.16C434.015 15.08 368.277 66.32 381.708 111.427C349.96 90.0933 317.559 72.32 317.559 72.32Z" fill="#00E4A1"/>
<path d="M316.103 65.1199C320.221 62.8929 324.739 61.5024 329.398 61.0287C334.056 60.5549 338.763 61.0074 343.245 62.3599C339.951 63.0972 336.904 64.6734 334.401 66.9351C331.898 69.1968 330.023 72.067 328.96 75.2666L316.103 65.1199Z" fill="#263238"/>
<path d="M317.211 61.3333C319.938 58.7875 323.141 56.8054 326.638 55.5011C330.134 54.1967 333.854 53.596 337.584 53.7333C335.193 54.9673 333.161 56.7982 331.687 59.0481C330.214 61.298 329.348 63.8904 329.173 66.5733L317.211 61.3333Z" fill="#263238"/>
<path d="M414.884 109.787C428.341 141.147 379.799 179.12 312.218 208.04C244.638 236.96 183.626 245.867 170.129 214.493C156.631 183.12 189.14 107.68 256.72 78.76C324.301 49.84 401.427 78.4133 414.884 109.787Z" fill="#00E4A1"/>
<path opacity="0.1" d="M388.21 112.773C400.679 141.853 362.657 175.187 308.106 198.52C253.556 221.853 203.185 226.347 190.715 197.253C178.246 168.16 208.391 116.493 262.915 93.1733C317.438 69.8533 375.727 83.6799 388.21 112.773Z" fill="black"/>
<path d="M278.495 155.16C277.32 152.413 280.911 149.267 286.051 147.053C291.191 144.84 295.971 144.387 297.146 147.173C298.321 149.96 296.518 157.227 291.365 159.44C286.212 161.653 279.67 157.907 278.495 155.16Z" fill="#263238"/>
<path opacity="0.3" d="M289.402 179.653C288.615 177.787 292.393 175.08 297.546 172.88C302.699 170.68 307.265 169.813 308.053 171.667C308.841 173.52 306.277 179.04 301.137 181.24C295.997 183.44 290.203 181.507 289.402 179.653Z" fill="black"/>
<path opacity="0.4" d="M194.04 157.027C201.396 135.987 218.204 120.373 235.346 116.467C264.25 109.88 272.728 146.027 258.763 170.947C243.17 198.84 208.725 194.587 205.361 181.827C200.515 190.32 180.809 194.76 194.04 157.027Z" fill="white"/>
<path d="M258.776 133.333C258.776 133.333 256.814 158.947 243.276 168C229.739 177.053 209.74 165.96 209.74 165.96C209.74 165.96 211.702 140.36 225.24 131.293C238.777 122.227 258.776 133.333 258.776 133.333Z" fill="white"/>
<path d="M209.74 165.827C209.617 159.554 210.519 153.303 212.41 147.32C213.339 144.258 214.621 141.314 216.228 138.547C217.851 135.677 219.982 133.124 222.516 131.013C225.128 128.886 228.214 127.418 231.515 126.733C234.72 126.053 238.023 125.963 241.26 126.467C247.529 127.386 253.508 129.711 258.75 133.267C253.055 131.084 247.074 129.737 240.993 129.267C238.077 129.072 235.147 129.342 232.316 130.067C229.55 130.705 226.978 131.994 224.813 133.827C222.569 135.649 220.658 137.846 219.165 140.32L218.551 141.24L218.004 142.213C217.657 142.867 217.27 143.547 216.936 144.173C216.308 145.507 215.601 146.84 215.08 148.267C212.803 153.958 211.017 159.832 209.74 165.827V165.827Z" fill="#263238"/>
<path d="M294.889 117.813C294.889 117.813 314.808 134.067 330.655 130.48C346.502 126.893 352.31 104.827 352.31 104.827C352.31 104.827 332.404 88.5733 316.544 92.16C300.684 95.7466 294.889 117.813 294.889 117.813Z" fill="white"/>
<path d="M352.31 104.827C347.082 101.628 341.593 98.8765 335.902 96.6C334.567 96.04 333.059 95.6133 331.643 95.1333C330.936 94.9067 330.202 94.7467 329.481 94.5467L328.413 94.2667L327.318 94.08C324.496 93.4585 321.588 93.3232 318.72 93.68C315.899 93.9928 313.191 94.9658 310.817 96.52C308.338 98.0624 306.124 99.9939 304.261 102.24C300.405 106.95 297.257 112.196 294.916 117.813C295.948 111.571 298.386 105.644 302.045 100.48C303.916 97.7921 306.259 95.4656 308.961 93.6133C311.744 91.6961 314.95 90.4793 318.306 90.0667C321.581 89.6924 324.896 89.9138 328.092 90.72C331.181 91.4677 334.174 92.5683 337.01 94C342.664 96.7561 347.832 100.413 352.31 104.827V104.827Z" fill="#263238"/>
<path d="M246.05 163.373C253.809 161.489 258.569 153.679 256.682 145.93C254.795 138.181 246.975 133.427 239.216 135.311C231.457 137.196 226.697 145.006 228.584 152.755C230.471 160.504 238.291 165.258 246.05 163.373Z" fill="#263238"/>
<path d="M231.021 150.2C231.498 151.303 232.292 152.24 233.302 152.893C234.312 153.546 235.493 153.885 236.697 153.868C237.9 153.851 239.071 153.478 240.062 152.796C241.053 152.114 241.819 151.155 242.265 150.038C242.71 148.922 242.814 147.699 242.564 146.523C242.313 145.348 241.72 144.273 240.858 143.434C239.996 142.596 238.905 142.031 237.722 141.811C236.539 141.591 235.317 141.727 234.211 142.2C233.475 142.515 232.808 142.972 232.249 143.545C231.69 144.118 231.25 144.795 230.953 145.539C230.657 146.282 230.51 147.076 230.522 147.876C230.533 148.676 230.703 149.466 231.021 150.2V150.2Z" fill="white"/>
<path d="M330.543 122.836C333.51 115.431 329.905 107.027 322.491 104.064C315.077 101.101 306.662 104.702 303.696 112.106C300.729 119.51 304.334 127.914 311.748 130.877C319.161 133.84 327.576 130.24 330.543 122.836Z" fill="#263238"/>
<path d="M305.503 118.32C305.98 119.423 306.774 120.36 307.784 121.013C308.795 121.666 309.976 122.005 311.179 121.988C312.382 121.971 313.553 121.598 314.544 120.916C315.535 120.234 316.302 119.275 316.747 118.158C317.193 117.042 317.297 115.819 317.046 114.643C316.796 113.468 316.202 112.393 315.341 111.554C314.479 110.716 313.388 110.151 312.205 109.931C311.022 109.711 309.8 109.847 308.694 110.32C307.956 110.634 307.288 111.09 306.728 111.663C306.168 112.235 305.727 112.913 305.431 113.656C305.134 114.4 304.988 115.195 305 115.995C305.013 116.796 305.184 117.586 305.503 118.32V118.32Z" fill="white"/>
<path d="M244.758 150.227C244.95 150.666 245.268 151.039 245.672 151.298C246.076 151.557 246.547 151.691 247.027 151.683C247.507 151.674 247.974 151.524 248.368 151.252C248.763 150.979 249.068 150.595 249.245 150.15C249.421 149.704 249.462 149.216 249.361 148.747C249.26 148.278 249.023 147.85 248.679 147.516C248.334 147.182 247.899 146.957 247.427 146.87C246.955 146.783 246.468 146.837 246.027 147.027C245.435 147.284 244.969 147.766 244.731 148.365C244.494 148.965 244.503 149.634 244.758 150.227V150.227Z" fill="white"/>
<path d="M319.241 118.347C319.425 118.788 319.737 119.165 320.136 119.431C320.534 119.696 321.003 119.838 321.482 119.838C321.961 119.838 322.43 119.697 322.829 119.432C323.228 119.166 323.539 118.789 323.724 118.348C323.909 117.906 323.959 117.42 323.868 116.95C323.777 116.48 323.549 116.048 323.213 115.707C322.876 115.366 322.446 115.133 321.977 115.035C321.508 114.938 321.02 114.981 320.576 115.16C320.276 115.278 320.003 115.456 319.773 115.681C319.543 115.906 319.36 116.175 319.236 116.472C319.112 116.769 319.048 117.088 319.049 117.41C319.05 117.732 319.115 118.05 319.241 118.347V118.347Z" fill="white"/>
<path d="M311.484 163.827C310.75 164.293 310.016 164.773 309.255 165.16C308.494 165.547 307.653 165.92 306.811 166.227C305.094 166.827 303.291 167.146 301.471 167.173C299.6 167.147 297.753 166.748 296.038 166C294.273 165.227 292.708 164.065 291.458 162.6L293.634 161.667C293.828 163.584 293.591 165.52 292.94 167.333C292.3 169.088 291.315 170.697 290.043 172.067C288.773 173.365 287.299 174.446 285.678 175.267C284.877 175.651 284.057 175.993 283.221 176.293C282.367 176.547 281.512 176.76 280.671 176.96C281.432 176.507 282.193 176.093 282.941 175.627C283.688 175.16 284.383 174.733 285.05 174.2C286.372 173.219 287.561 172.072 288.588 170.787C289.55 169.515 290.282 168.084 290.751 166.56C290.982 165.808 291.143 165.035 291.231 164.253C291.318 163.509 291.318 162.757 291.231 162.013C291.201 161.7 291.291 161.387 291.485 161.139C291.679 160.891 291.961 160.726 292.273 160.68C292.485 160.653 292.701 160.68 292.899 160.759C293.098 160.839 293.273 160.967 293.408 161.133C293.893 161.706 294.434 162.228 295.023 162.693C295.657 163.155 296.326 163.565 297.026 163.92C298.456 164.621 299.995 165.072 301.578 165.253C303.222 165.401 304.879 165.329 306.504 165.04C307.345 164.933 308.16 164.667 309.001 164.507C309.842 164.347 310.643 164.067 311.484 163.827Z" fill="#263238"/>
<path d="M292.433 163.133C292.195 163.131 291.963 163.061 291.765 162.931C291.566 162.801 291.409 162.617 291.312 162.4L287.613 153.72C287.489 153.425 287.486 153.092 287.606 152.795C287.726 152.497 287.959 152.26 288.254 152.133C288.401 152.068 288.56 152.032 288.721 152.029C288.882 152.026 289.041 152.055 289.191 152.115C289.34 152.174 289.476 152.263 289.591 152.377C289.705 152.49 289.795 152.625 289.856 152.773L293.581 161.44C293.661 161.625 293.693 161.827 293.675 162.028C293.658 162.228 293.59 162.421 293.479 162.589C293.367 162.757 293.216 162.895 293.038 162.99C292.86 163.085 292.661 163.134 292.46 163.133H292.433Z" fill="#263238"/>
<path d="M171.09 181.64C160.263 186.72 152.399 197.52 150.437 210.307C159.996 198.653 171.143 202.08 171.143 202.08L171.09 181.64Z" fill="#00E4A1"/>
<path d="M172.198 213.147C170.308 217.442 169.497 222.133 169.834 226.813C170.172 231.493 171.648 236.019 174.134 240C174.027 228.533 182.224 225.12 182.224 225.12L172.198 213.147Z" fill="#00E4A1"/>
<path d="M171.571 195.547C160.663 203.68 154.415 217.507 155.069 232.227C163.08 217.04 176.297 218.333 176.297 218.333L171.571 195.547Z" fill="#00E4A1"/>
<path d="M390.412 87.7867C401.56 83.4667 414.777 85.28 425.444 92.6267C410.398 91.5067 405.191 101.96 405.191 101.96L390.412 87.7867Z" fill="#00E4A1"/>
<path d="M408.916 109.787C417.901 108.333 427.7 109.467 433.708 115.307C426.333 115.302 419.193 117.899 413.549 122.64L408.916 109.787Z" fill="#00E4A1"/>
<path d="M405.912 108.48C414.069 112.48 421.359 119.147 422.827 127.4C416.838 123.095 409.518 121.045 402.161 121.613L405.912 108.48Z" fill="#00E4A1"/>
<path d="M400.185 97.7333C413.602 95.4533 427.927 100.48 438.154 111.067C421.626 106.387 413.442 116.827 413.442 116.827L400.185 97.7333Z" fill="#00E4A1"/>
<path d="M248.897 84.7066C248.389 77.16 252.034 70.6666 261.059 63.96C259.163 74.7333 266.973 77.4266 266.973 77.4266L248.897 84.7066Z" fill="#00E4A1"/>
<path d="M258.75 80.5066C260.538 71.7333 269.537 63.1733 282.634 57.6666C273.288 67.72 280.818 73.96 280.818 73.96L258.75 80.5066Z" fill="#00E4A1"/>
<path d="M184.267 238.067C184.148 238.062 184.033 238.025 183.933 237.96C183.867 237.916 183.81 237.859 183.766 237.792C183.722 237.726 183.692 237.652 183.677 237.574C183.662 237.495 183.663 237.415 183.679 237.337C183.696 237.259 183.728 237.185 183.773 237.12C219.165 184.293 283.568 163.453 284.209 163.253C284.365 163.207 284.533 163.222 284.677 163.297C284.821 163.372 284.931 163.499 284.983 163.653C285.029 163.807 285.013 163.973 284.938 164.115C284.864 164.257 284.736 164.364 284.583 164.413C283.942 164.613 219.94 185.333 184.774 237.747C184.728 237.842 184.655 237.922 184.566 237.978C184.476 238.035 184.373 238.065 184.267 238.067V238.067Z" fill="#263238"/>
<path d="M194.013 271.347C193.947 271.359 193.879 271.359 193.813 271.347C193.659 271.295 193.532 271.185 193.459 271.04C193.387 270.895 193.375 270.727 193.425 270.573C217.857 199.307 281.806 168.427 282.447 168.133C282.59 168.065 282.755 168.055 282.905 168.108C283.055 168.16 283.179 168.27 283.248 168.413C283.284 168.485 283.305 168.563 283.311 168.643C283.316 168.723 283.306 168.803 283.28 168.879C283.253 168.955 283.212 169.025 283.159 169.084C283.105 169.144 283.04 169.192 282.967 169.227C282.327 169.533 218.885 200.2 194.587 270.973C194.538 271.084 194.457 271.179 194.355 271.245C194.254 271.311 194.135 271.347 194.013 271.347V271.347Z" fill="#263238"/>
<path d="M299.362 158.04C299.255 158.042 299.15 158.015 299.058 157.961C298.966 157.906 298.891 157.828 298.841 157.733C298.799 157.666 298.77 157.59 298.758 157.511C298.745 157.432 298.749 157.351 298.769 157.274C298.789 157.197 298.825 157.124 298.874 157.061C298.923 156.998 298.985 156.945 299.055 156.907C299.642 156.56 358.478 123.133 421.412 132.653C421.491 132.663 421.567 132.689 421.636 132.728C421.704 132.768 421.764 132.822 421.811 132.885C421.859 132.949 421.893 133.021 421.911 133.098C421.93 133.175 421.933 133.255 421.92 133.333C421.89 133.491 421.803 133.632 421.674 133.729C421.545 133.825 421.385 133.869 421.225 133.853C358.732 124.387 300.256 157.613 299.736 157.96C299.623 158.026 299.492 158.054 299.362 158.04V158.04Z" fill="#263238"/>
<path d="M425.631 162.52C425.569 162.534 425.506 162.534 425.444 162.52C350.948 138.52 304.742 159.853 304.275 160.093C304.13 160.162 303.963 160.171 303.811 160.117C303.66 160.063 303.536 159.952 303.467 159.807C303.398 159.662 303.389 159.495 303.443 159.344C303.497 159.193 303.609 159.069 303.754 159C304.208 158.773 350.815 137.187 425.818 161.36C425.97 161.415 426.094 161.525 426.166 161.669C426.238 161.813 426.252 161.979 426.205 162.133C426.161 162.249 426.082 162.348 425.979 162.418C425.877 162.487 425.755 162.523 425.631 162.52V162.52Z" fill="#263238"/>
<path d="M287.819 488.346C299.326 475.935 298.581 456.557 286.154 445.065C273.727 433.572 254.325 434.317 242.817 446.728C231.31 459.138 232.055 478.516 244.482 490.008C256.909 501.501 276.311 500.756 287.819 488.346Z" fill="#00E4A1"/>
<path d="M351.362 499.493C336.169 499.493 330.802 493.747 325.622 488.2C323.907 486.263 322.027 484.478 320.002 482.867C312.232 476.947 299.976 474.24 293.795 477.08C293.506 477.128 293.21 477.08 292.952 476.944C292.693 476.807 292.487 476.59 292.364 476.325C292.241 476.06 292.209 475.762 292.272 475.477C292.335 475.192 292.49 474.935 292.713 474.747C299.789 471.507 312.993 474.293 321.564 480.813C323.706 482.53 325.698 484.426 327.518 486.48C332.538 491.88 337.291 496.973 351.362 496.973C354.796 497.064 358.19 496.224 361.185 494.543C364.18 492.862 366.663 490.403 368.371 487.427C369.781 485.09 370.543 482.421 370.578 479.694C370.613 476.966 369.92 474.278 368.571 471.907C365.38 466.773 358.812 464.16 350.054 464.573C349.859 464.635 349.652 464.652 349.449 464.621C349.247 464.59 349.054 464.514 348.886 464.397C348.718 464.28 348.579 464.126 348.48 463.947C348.381 463.768 348.325 463.569 348.315 463.365C348.306 463.16 348.344 462.957 348.425 462.769C348.507 462.582 348.631 462.416 348.788 462.284C348.944 462.152 349.129 462.058 349.327 462.009C349.526 461.959 349.733 461.956 349.934 462C359.666 461.56 367.062 464.587 370.76 470.547C372.35 473.31 373.175 476.445 373.151 479.631C373.128 482.818 372.257 485.941 370.627 488.68C368.691 492.05 365.879 494.835 362.487 496.739C359.095 498.643 355.251 499.594 351.362 499.493V499.493Z" fill="#00E4A1"/>
<path d="M278.268 490.933C262.109 490.769 246.536 484.871 234.331 474.293C234.173 474.048 234.1 473.759 234.123 473.468C234.145 473.178 234.262 472.903 234.456 472.685C234.65 472.468 234.909 472.319 235.196 472.263C235.482 472.207 235.778 472.245 236.04 472.373C246.721 481.893 265.785 490.907 287.053 487.707C287.24 487.625 287.444 487.587 287.649 487.596C287.853 487.606 288.053 487.662 288.232 487.761C288.412 487.859 288.566 487.998 288.683 488.166C288.8 488.333 288.877 488.526 288.908 488.728C288.938 488.93 288.922 489.137 288.86 489.332C288.798 489.527 288.692 489.705 288.55 489.852C288.408 490 288.234 490.112 288.042 490.182C287.849 490.252 287.643 490.276 287.44 490.253C284.404 490.707 281.338 490.935 278.268 490.933V490.933Z" fill="#00E4A1"/>
<path d="M274.904 494.747C259.163 494.747 245.719 488.56 233.984 475.947C233.755 475.7 233.628 475.376 233.628 475.04C233.628 474.704 233.755 474.38 233.984 474.133C234.232 473.901 234.559 473.771 234.899 473.771C235.239 473.771 235.566 473.901 235.813 474.133C248.803 488.107 263.983 493.827 282.206 491.667C282.397 491.587 282.603 491.552 282.809 491.566C283.015 491.579 283.215 491.64 283.394 491.744C283.572 491.848 283.724 491.991 283.838 492.164C283.951 492.336 284.023 492.532 284.048 492.737C284.072 492.942 284.049 493.149 283.98 493.344C283.911 493.538 283.797 493.713 283.649 493.857C283.5 494 283.32 494.106 283.123 494.168C282.926 494.23 282.717 494.246 282.513 494.213C279.99 494.544 277.449 494.722 274.904 494.747V494.747Z" fill="#00E4A1"/>
<path d="M251.647 496.293C251.315 496.295 250.994 496.173 250.747 495.951C250.5 495.729 250.345 495.423 250.312 495.093C249.191 480.053 254.384 456.107 268.482 436.52C268.709 436.336 268.99 436.231 269.282 436.221C269.575 436.212 269.862 436.299 270.1 436.469C270.338 436.638 270.514 436.881 270.6 437.16C270.687 437.439 270.679 437.739 270.578 438.013C256.907 457.093 251.847 480.333 252.902 494.907C252.904 495.236 252.784 495.555 252.564 495.801C252.345 496.047 252.042 496.204 251.714 496.24L251.647 496.293Z" fill="#00E4A1"/>
<path d="M238.844 484.36C238.599 484.358 238.358 484.289 238.15 484.16C237.871 483.97 237.674 483.681 237.6 483.352C237.526 483.023 237.579 482.678 237.749 482.387C242.235 475.307 258.896 451.56 285.01 443.227C285.334 443.136 285.681 443.17 285.98 443.324C286.28 443.477 286.51 443.737 286.625 444.053C286.717 444.377 286.682 444.723 286.528 445.022C286.375 445.321 286.114 445.551 285.798 445.667C260.512 453.747 244.291 476.867 239.925 483.76C239.807 483.94 239.647 484.088 239.458 484.193C239.27 484.297 239.059 484.354 238.844 484.36V484.36Z" fill="#00E4A1"/>
<path d="M238.844 484.36C238.679 484.361 238.516 484.33 238.363 484.267C238.055 484.131 237.809 483.884 237.675 483.575C237.541 483.266 237.53 482.917 237.642 482.6C241.591 472.905 247.562 464.162 255.159 456.952C262.756 449.742 271.803 444.231 281.699 440.787C281.991 440.766 282.282 440.841 282.527 441.002C282.771 441.162 282.957 441.398 283.054 441.674C283.151 441.95 283.154 442.25 283.064 442.528C282.974 442.806 282.794 443.047 282.554 443.213C272.996 446.532 264.256 451.847 256.917 458.804C249.578 465.761 243.808 474.2 239.992 483.56C239.894 483.786 239.734 483.981 239.531 484.122C239.329 484.264 239.091 484.346 238.844 484.36Z" fill="#00E4A1"/>
<path d="M247.842 494.053C247.518 494.056 247.204 493.942 246.959 493.731C246.713 493.52 246.552 493.227 246.507 492.907C243.276 465.12 252.408 449.227 262.768 436.2C262.986 435.944 263.293 435.78 263.627 435.74C263.962 435.701 264.298 435.789 264.57 435.987C264.83 436.205 264.997 436.514 265.037 436.851C265.076 437.188 264.986 437.527 264.784 437.8C254.771 450.4 245.946 465.8 249.07 492.613C249.098 492.95 248.996 493.285 248.785 493.55C248.574 493.815 248.271 493.99 247.936 494.04L247.842 494.053Z" fill="#00E4A1"/>
<path d="M244.264 491.147C243.986 491.14 243.716 491.046 243.493 490.879C243.271 490.712 243.106 490.479 243.023 490.213C239.017 475.48 241.995 452.44 258.336 436.64C258.583 436.411 258.907 436.284 259.244 436.284C259.58 436.284 259.904 436.411 260.151 436.64C260.384 436.887 260.514 437.214 260.514 437.553C260.514 437.893 260.384 438.219 260.151 438.467C245.266 452.853 241.527 475.027 245.533 489.493C245.613 489.822 245.565 490.168 245.399 490.463C245.233 490.757 244.961 490.978 244.638 491.08L244.264 491.147Z" fill="#00E4A1"/>
<path d="M295.624 473.147C295.356 473.143 295.096 473.06 294.876 472.907C275.785 459.187 252.502 454.133 237.909 455.227C237.619 455.173 237.355 455.025 237.158 454.805C236.961 454.585 236.842 454.306 236.821 454.012C236.8 453.718 236.876 453.425 237.04 453.179C237.203 452.933 237.443 452.748 237.723 452.653C252.782 451.547 276.759 456.72 296.385 470.813C296.582 470.985 296.725 471.211 296.794 471.463C296.864 471.716 296.858 471.983 296.777 472.231C296.696 472.48 296.543 472.699 296.338 472.862C296.133 473.025 295.885 473.124 295.624 473.147Z" fill="#00E4A1"/>
<path d="M295.891 469.587C295.711 469.591 295.533 469.555 295.37 469.48C278.255 461.893 252.355 460.893 235.132 467.133C234.965 467.253 234.772 467.332 234.569 467.365C234.366 467.398 234.158 467.384 233.961 467.323C233.764 467.262 233.584 467.157 233.435 467.015C233.286 466.873 233.171 466.699 233.101 466.506C233.03 466.313 233.006 466.106 233.028 465.901C233.051 465.697 233.121 465.501 233.232 465.328C233.344 465.155 233.494 465.01 233.671 464.905C233.847 464.799 234.046 464.736 234.251 464.72C252.034 458.267 278.749 459.307 296.411 467.133C296.714 467.281 296.95 467.537 297.071 467.852C297.193 468.166 297.191 468.514 297.066 468.827C296.959 469.049 296.793 469.238 296.586 469.373C296.378 469.507 296.138 469.581 295.891 469.587Z" fill="#00E4A1"/>
<path d="M295.837 465.987C295.66 465.984 295.484 465.946 295.322 465.875C295.159 465.804 295.012 465.702 294.889 465.573C282.193 451.787 265.745 446.907 241.487 449.693C241.297 449.773 241.091 449.807 240.884 449.794C240.678 449.781 240.478 449.72 240.3 449.616C240.121 449.512 239.969 449.368 239.856 449.196C239.743 449.024 239.671 448.828 239.646 448.623C239.621 448.418 239.644 448.211 239.714 448.016C239.783 447.822 239.896 447.646 240.045 447.503C240.194 447.36 240.374 447.254 240.571 447.192C240.768 447.13 240.976 447.114 241.18 447.147C265.959 444.267 283.608 449.573 296.732 463.84C296.879 464.03 296.973 464.256 297.002 464.495C297.032 464.733 296.996 464.976 296.899 465.196C296.802 465.416 296.647 465.605 296.45 465.744C296.254 465.884 296.024 465.967 295.784 465.987H295.837Z" fill="#00E4A1"/>
<path d="M294.876 460.76C294.535 460.752 294.21 460.613 293.968 460.373C278.094 444.56 255.706 442.28 245.573 445.707C245.279 445.726 244.988 445.648 244.743 445.485C244.499 445.321 244.315 445.082 244.221 444.804C244.126 444.526 244.127 444.224 244.221 443.946C244.316 443.668 244.5 443.429 244.745 443.267C255.492 439.627 279.149 441.933 295.784 458.547C296.013 458.793 296.14 459.117 296.14 459.453C296.14 459.79 296.013 460.113 295.784 460.36C295.544 460.605 295.219 460.748 294.876 460.76V460.76Z" fill="#00E4A1"/>
<path d="M288.948 488.413C288.829 488.433 288.707 488.433 288.588 488.413C257.882 479.333 235.306 458.72 235.092 458.507C234.939 458.26 234.871 457.969 234.898 457.68C234.925 457.39 235.046 457.118 235.242 456.903C235.439 456.689 235.7 456.545 235.986 456.492C236.273 456.44 236.568 456.482 236.828 456.613C237.055 456.827 259.217 477.04 289.322 485.947C289.579 486.07 289.79 486.272 289.924 486.523C290.058 486.775 290.107 487.062 290.066 487.344C290.024 487.626 289.893 487.887 289.692 488.089C289.491 488.291 289.23 488.423 288.948 488.467V488.413Z" fill="#00E4A1"/>
<path d="M289.563 487.627C289.388 487.625 289.216 487.588 289.055 487.52C270.476 479.235 252.675 469.306 235.867 457.853C235.672 457.785 235.495 457.673 235.351 457.525C235.207 457.377 235.099 457.197 235.036 457.001C234.973 456.804 234.957 456.596 234.988 456.392C235.02 456.188 235.098 455.994 235.218 455.825C235.337 455.656 235.494 455.518 235.676 455.42C235.858 455.323 236.06 455.268 236.267 455.262C236.474 455.256 236.679 455.297 236.866 455.384C237.054 455.47 237.219 455.599 237.349 455.76C254.009 467.111 271.653 476.95 290.07 485.16C290.308 485.302 290.496 485.514 290.608 485.767C290.719 486.02 290.749 486.302 290.694 486.573C290.638 486.844 290.499 487.091 290.296 487.28C290.094 487.469 289.837 487.59 289.563 487.627V487.627Z" fill="#00E4A1"/>
<path d="M290.697 486.04C290.488 486.044 290.281 485.993 290.097 485.893C263.836 471.787 236.307 458.093 236.04 457.96C235.822 457.766 235.673 457.506 235.617 457.22C235.561 456.934 235.6 456.637 235.729 456.376C235.858 456.114 236.069 455.901 236.33 455.771C236.591 455.64 236.888 455.599 237.175 455.653C237.455 455.787 265.024 469.507 291.311 483.653C291.532 483.809 291.7 484.028 291.794 484.281C291.887 484.534 291.902 484.809 291.835 485.071C291.769 485.332 291.624 485.567 291.421 485.745C291.218 485.923 290.966 486.035 290.697 486.067V486.04Z" fill="#00E4A1"/>
<path d="M291.619 484.627C291.333 484.632 291.054 484.538 290.831 484.36C266.987 465.693 237.015 457.027 236.708 456.947C236.454 456.796 236.258 456.567 236.148 456.293C236.039 456.019 236.024 455.717 236.105 455.434C236.186 455.151 236.358 454.902 236.595 454.727C236.832 454.552 237.121 454.461 237.415 454.467C237.723 454.56 268.122 463.333 292.42 482.333C292.676 482.551 292.84 482.858 292.88 483.191C292.919 483.525 292.831 483.862 292.633 484.133C292.514 484.289 292.361 484.415 292.185 484.5C292.008 484.586 291.815 484.629 291.619 484.627V484.627Z" fill="#00E4A1"/>
<path d="M294.075 479.453C293.78 479.452 293.494 479.354 293.261 479.173C271.419 461.253 237.188 457.027 236.895 456.987C236.621 456.878 236.39 456.682 236.24 456.429C236.089 456.176 236.026 455.881 236.061 455.589C236.096 455.296 236.227 455.024 236.433 454.814C236.64 454.603 236.91 454.467 237.202 454.427C237.549 454.427 272.461 458.787 294.903 477.187C295.153 477.41 295.31 477.719 295.342 478.053C295.374 478.386 295.279 478.72 295.076 478.987C294.952 479.131 294.799 479.248 294.626 479.328C294.454 479.409 294.266 479.451 294.075 479.453V479.453Z" fill="#00E4A1"/>
<path d="M253.823 497.333C253.566 497.306 253.323 497.205 253.123 497.042C252.922 496.879 252.773 496.662 252.694 496.416C252.615 496.17 252.609 495.907 252.677 495.658C252.744 495.409 252.883 495.185 253.076 495.013C277.414 477.427 291.311 453.027 291.445 452.787C291.496 452.588 291.591 452.404 291.725 452.248C291.858 452.093 292.026 451.97 292.215 451.889C292.403 451.809 292.608 451.773 292.813 451.784C293.018 451.796 293.217 451.854 293.396 451.955C293.575 452.056 293.727 452.196 293.843 452.366C293.958 452.535 294.033 452.729 294.061 452.932C294.089 453.135 294.07 453.342 294.006 453.536C293.941 453.731 293.832 453.908 293.688 454.053C293.554 454.293 279.376 479.187 254.584 497.093C254.361 497.249 254.095 497.333 253.823 497.333Z" fill="#00E4A1"/>
<g opacity="0.3">
<path opacity="0.3" d="M278.268 490.933C262.109 490.769 246.536 484.871 234.331 474.293C234.173 474.048 234.1 473.759 234.122 473.468C234.145 473.178 234.262 472.903 234.456 472.685C234.65 472.468 234.909 472.319 235.195 472.263C235.482 472.207 235.778 472.245 236.04 472.373C246.721 481.893 265.785 490.907 287.053 487.707C287.24 487.625 287.444 487.587 287.649 487.596C287.853 487.606 288.053 487.662 288.232 487.761C288.412 487.859 288.566 487.998 288.683 488.166C288.8 488.333 288.877 488.526 288.908 488.728C288.938 488.93 288.922 489.137 288.86 489.332C288.798 489.527 288.692 489.705 288.55 489.852C288.408 490 288.234 490.112 288.042 490.182C287.849 490.252 287.643 490.276 287.44 490.253C284.404 490.707 281.338 490.935 278.268 490.933V490.933Z" fill="black"/>
<path opacity="0.3" d="M274.904 494.747C259.163 494.747 245.719 488.56 233.984 475.947C233.755 475.7 233.628 475.376 233.628 475.04C233.628 474.704 233.755 474.38 233.984 474.133C234.232 473.901 234.559 473.771 234.899 473.771C235.239 473.771 235.566 473.901 235.813 474.133C248.803 488.107 263.983 493.827 282.206 491.667C282.397 491.587 282.603 491.552 282.809 491.566C283.015 491.579 283.215 491.64 283.394 491.744C283.572 491.848 283.724 491.991 283.838 492.164C283.951 492.336 284.023 492.532 284.048 492.737C284.072 492.942 284.049 493.149 283.98 493.344C283.911 493.538 283.797 493.713 283.649 493.857C283.5 494 283.32 494.106 283.123 494.168C282.926 494.23 282.717 494.246 282.513 494.213C279.99 494.544 277.449 494.722 274.904 494.747V494.747Z" fill="black"/>
<path opacity="0.3" d="M251.647 496.293C251.315 496.295 250.994 496.173 250.747 495.951C250.5 495.729 250.345 495.423 250.312 495.093C249.191 480.053 254.384 456.107 268.482 436.52C268.709 436.336 268.99 436.231 269.282 436.221C269.575 436.212 269.862 436.299 270.1 436.469C270.338 436.638 270.514 436.881 270.6 437.16C270.687 437.439 270.679 437.739 270.578 438.013C256.907 457.093 251.847 480.333 252.902 494.907C252.904 495.236 252.784 495.555 252.564 495.801C252.345 496.047 252.042 496.204 251.714 496.24L251.647 496.293Z" fill="black"/>
<path opacity="0.3" d="M238.844 484.36C238.599 484.358 238.358 484.289 238.15 484.16C237.871 483.97 237.674 483.681 237.6 483.352C237.526 483.023 237.579 482.678 237.749 482.387C242.235 475.307 258.896 451.56 285.01 443.227C285.334 443.136 285.68 443.17 285.98 443.324C286.28 443.477 286.51 443.737 286.625 444.053C286.716 444.377 286.682 444.723 286.528 445.022C286.375 445.321 286.114 445.551 285.798 445.667C260.512 453.747 244.291 476.867 239.925 483.76C239.807 483.94 239.647 484.088 239.458 484.193C239.27 484.297 239.059 484.354 238.844 484.36V484.36Z" fill="black"/>
<path opacity="0.3" d="M238.844 484.36C238.679 484.361 238.516 484.33 238.363 484.267C238.055 484.131 237.809 483.884 237.675 483.575C237.541 483.266 237.53 482.917 237.642 482.6C241.591 472.905 247.562 464.162 255.159 456.952C262.756 449.742 271.803 444.231 281.699 440.787C281.991 440.766 282.282 440.841 282.527 441.002C282.771 441.162 282.957 441.398 283.054 441.674C283.151 441.95 283.154 442.25 283.064 442.528C282.974 442.806 282.794 443.047 282.553 443.213C272.996 446.532 264.256 451.847 256.917 458.804C249.578 465.761 243.808 474.2 239.992 483.56C239.894 483.786 239.734 483.981 239.531 484.122C239.329 484.264 239.091 484.346 238.844 484.36Z" fill="black"/>
<path opacity="0.3" d="M247.842 494.053C247.518 494.056 247.204 493.942 246.959 493.731C246.713 493.52 246.552 493.227 246.507 492.907C243.276 465.12 252.408 449.227 262.768 436.2C262.986 435.944 263.293 435.78 263.627 435.74C263.962 435.701 264.298 435.789 264.57 435.987C264.83 436.205 264.997 436.514 265.037 436.851C265.076 437.188 264.986 437.527 264.784 437.8C254.771 450.4 245.946 465.8 249.07 492.613C249.098 492.95 248.996 493.285 248.785 493.55C248.574 493.815 248.271 493.99 247.936 494.04L247.842 494.053Z" fill="black"/>
<path opacity="0.3" d="M244.264 491.147C243.986 491.14 243.716 491.046 243.493 490.879C243.271 490.712 243.106 490.479 243.023 490.213C239.017 475.48 241.995 452.44 258.336 436.64C258.583 436.411 258.907 436.284 259.244 436.284C259.58 436.284 259.904 436.411 260.151 436.64C260.384 436.887 260.514 437.214 260.514 437.553C260.514 437.893 260.384 438.219 260.151 438.467C245.266 452.853 241.527 475.027 245.533 489.493C245.613 489.822 245.565 490.168 245.399 490.463C245.233 490.757 244.961 490.978 244.638 491.08L244.264 491.147Z" fill="black"/>
<path opacity="0.3" d="M295.624 473.147C295.356 473.143 295.095 473.06 294.876 472.907C275.785 459.187 252.501 454.133 237.909 455.227C237.619 455.173 237.355 455.025 237.158 454.805C236.961 454.585 236.842 454.306 236.821 454.012C236.8 453.718 236.876 453.425 237.04 453.179C237.203 452.933 237.443 452.748 237.722 452.653C252.782 451.547 276.759 456.72 296.385 470.813C296.582 470.985 296.724 471.211 296.794 471.463C296.864 471.716 296.858 471.983 296.777 472.231C296.696 472.48 296.543 472.699 296.338 472.862C296.133 473.025 295.885 473.124 295.624 473.147Z" fill="black"/>
<path opacity="0.3" d="M295.891 469.587C295.711 469.591 295.533 469.555 295.37 469.48C278.255 461.893 252.355 460.893 235.132 467.133C234.965 467.253 234.772 467.332 234.569 467.365C234.366 467.398 234.158 467.384 233.961 467.323C233.764 467.262 233.584 467.157 233.435 467.015C233.286 466.873 233.171 466.699 233.101 466.506C233.03 466.313 233.006 466.106 233.028 465.901C233.051 465.697 233.121 465.501 233.232 465.328C233.344 465.155 233.494 465.01 233.671 464.905C233.847 464.799 234.046 464.736 234.251 464.72C252.034 458.267 278.749 459.307 296.411 467.133C296.714 467.281 296.95 467.537 297.071 467.852C297.193 468.166 297.191 468.514 297.066 468.827C296.959 469.049 296.793 469.238 296.586 469.373C296.378 469.507 296.138 469.581 295.891 469.587Z" fill="black"/>
<path opacity="0.3" d="M295.837 465.987C295.66 465.984 295.484 465.946 295.322 465.875C295.159 465.804 295.012 465.702 294.889 465.573C282.193 451.787 265.745 446.907 241.487 449.693C241.297 449.773 241.091 449.807 240.884 449.794C240.678 449.781 240.478 449.72 240.3 449.616C240.121 449.512 239.969 449.368 239.856 449.196C239.743 449.024 239.671 448.828 239.646 448.623C239.621 448.418 239.644 448.211 239.714 448.016C239.783 447.822 239.896 447.646 240.045 447.503C240.194 447.36 240.374 447.254 240.571 447.192C240.768 447.13 240.976 447.114 241.18 447.147C265.959 444.267 283.608 449.573 296.732 463.84C296.879 464.03 296.973 464.256 297.002 464.495C297.032 464.733 296.996 464.976 296.899 465.196C296.802 465.416 296.647 465.605 296.45 465.744C296.254 465.884 296.024 465.967 295.784 465.987H295.837Z" fill="black"/>
<path opacity="0.3" d="M294.876 460.76C294.535 460.752 294.21 460.613 293.968 460.373C278.094 444.56 255.706 442.28 245.573 445.707C245.279 445.726 244.988 445.648 244.743 445.485C244.499 445.321 244.315 445.082 244.221 444.804C244.126 444.526 244.127 444.224 244.221 443.946C244.316 443.668 244.5 443.429 244.745 443.267C255.492 439.627 279.149 441.933 295.784 458.547C296.013 458.793 296.14 459.117 296.14 459.453C296.14 459.79 296.013 460.113 295.784 460.36C295.544 460.605 295.219 460.748 294.876 460.76V460.76Z" fill="black"/>
<path opacity="0.3" d="M288.948 488.413C288.829 488.433 288.707 488.433 288.588 488.413C257.882 479.333 235.306 458.72 235.092 458.507C234.939 458.26 234.871 457.969 234.898 457.68C234.925 457.39 235.046 457.118 235.242 456.903C235.439 456.689 235.7 456.545 235.986 456.492C236.273 456.44 236.568 456.482 236.828 456.613C237.055 456.827 259.217 477.04 289.322 485.947C289.579 486.07 289.79 486.272 289.924 486.523C290.058 486.775 290.107 487.062 290.066 487.344C290.024 487.626 289.893 487.887 289.692 488.089C289.491 488.291 289.23 488.423 288.948 488.467V488.413Z" fill="black"/>
<path opacity="0.3" d="M289.563 487.627C289.388 487.625 289.216 487.588 289.055 487.52C270.476 479.235 252.675 469.306 235.867 457.853C235.672 457.785 235.495 457.673 235.351 457.525C235.207 457.377 235.099 457.197 235.036 457.001C234.973 456.804 234.957 456.596 234.988 456.392C235.02 456.188 235.098 455.994 235.218 455.825C235.337 455.656 235.494 455.518 235.676 455.42C235.858 455.323 236.06 455.268 236.267 455.262C236.474 455.256 236.679 455.297 236.866 455.384C237.054 455.47 237.219 455.599 237.349 455.76C254.009 467.111 271.653 476.95 290.07 485.16C290.308 485.302 290.496 485.514 290.608 485.767C290.719 486.02 290.749 486.302 290.694 486.573C290.638 486.844 290.499 487.091 290.296 487.28C290.094 487.469 289.837 487.59 289.563 487.627V487.627Z" fill="black"/>
<path opacity="0.3" d="M290.697 486.04C290.488 486.044 290.281 485.993 290.097 485.893C263.836 471.787 236.307 458.093 236.04 457.96C235.822 457.766 235.673 457.506 235.617 457.22C235.561 456.934 235.6 456.637 235.729 456.376C235.858 456.114 236.069 455.901 236.33 455.771C236.591 455.64 236.888 455.599 237.175 455.653C237.455 455.787 265.024 469.507 291.311 483.653C291.532 483.809 291.7 484.028 291.794 484.281C291.887 484.534 291.902 484.809 291.835 485.071C291.769 485.332 291.624 485.567 291.421 485.745C291.218 485.923 290.966 486.035 290.697 486.067V486.04Z" fill="black"/>
<path opacity="0.3" d="M291.618 484.627C291.333 484.632 291.054 484.538 290.831 484.36C266.987 465.693 237.015 457.027 236.708 456.947C236.454 456.796 236.257 456.567 236.148 456.293C236.039 456.019 236.024 455.717 236.105 455.434C236.186 455.151 236.358 454.902 236.595 454.727C236.832 454.552 237.121 454.461 237.415 454.467C237.722 454.56 268.122 463.333 292.42 482.333C292.676 482.551 292.84 482.858 292.88 483.191C292.919 483.525 292.831 483.862 292.633 484.133C292.514 484.289 292.361 484.415 292.184 484.5C292.008 484.586 291.814 484.629 291.618 484.627V484.627Z" fill="black"/>
<path opacity="0.3" d="M294.075 479.453C293.78 479.452 293.494 479.354 293.261 479.173C271.419 461.253 237.188 457.027 236.895 456.987C236.621 456.878 236.39 456.682 236.24 456.429C236.089 456.176 236.026 455.881 236.061 455.589C236.096 455.296 236.227 455.024 236.433 454.814C236.64 454.603 236.91 454.467 237.202 454.427C237.549 454.427 272.461 458.787 294.903 477.187C295.153 477.41 295.31 477.719 295.342 478.053C295.374 478.386 295.279 478.72 295.076 478.987C294.952 479.131 294.799 479.248 294.626 479.328C294.454 479.409 294.266 479.451 294.075 479.453V479.453Z" fill="black"/>
<path opacity="0.3" d="M253.823 497.333C253.566 497.306 253.323 497.205 253.123 497.042C252.922 496.879 252.773 496.662 252.694 496.416C252.615 496.17 252.609 495.907 252.677 495.658C252.744 495.409 252.883 495.185 253.076 495.013C277.414 477.427 291.311 453.027 291.445 452.787C291.496 452.588 291.591 452.404 291.725 452.248C291.858 452.093 292.026 451.97 292.215 451.889C292.403 451.809 292.608 451.773 292.813 451.784C293.018 451.796 293.217 451.854 293.396 451.955C293.575 452.056 293.727 452.196 293.843 452.366C293.958 452.535 294.033 452.729 294.061 452.932C294.089 453.135 294.07 453.342 294.006 453.536C293.941 453.731 293.832 453.908 293.688 454.053C293.554 454.293 279.376 479.187 254.584 497.093C254.361 497.249 254.095 497.333 253.823 497.333Z" fill="black"/>
</g>
</g>
<defs>
<clipPath id="clip0_610_193">
<rect width="658" height="512" fill="white"/>
</clipPath>
</defs>
</svg>
