<?xml version="1.0" standalone="no"?>
<!DOCTYPE svg PUBLIC "-//W3C//DTD SVG 20010904//EN"
 "http://www.w3.org/TR/2001/REC-SVG-20010904/DTD/svg10.dtd">
<svg version="1.0" xmlns="http://www.w3.org/2000/svg"
 width="700.000000pt" height="700.000000pt" viewBox="0 0 700.000000 700.000000"
 preserveAspectRatio="xMidYMid meet">
<metadata>
Created by potrace 1.14, written by Peter Selinger 2001-2017
</metadata>
<g transform="translate(0.000000,700.000000) scale(0.100000,-0.100000)"
fill="#000000" stroke="none">
<path d="M1855 6989 c-920 -97 -1651 -770 -1820 -1676 -8 -43 -19 -125 -25
-182 -14 -141 -14 -3121 0 -3262 50 -492 252 -922 594 -1265 342 -342 783
-548 1271 -594 150 -14 3100 -14 3250 0 491 46 926 249 1271 594 344 345 548
780 594 1271 14 150 14 3100 0 3250 -82 877 -693 1595 -1541 1810 -242 62
-134 58 -1899 61 -888 1 -1651 -2 -1695 -7z m3439 -1899 c272 -102 280 -493
13 -616 l-62 -29 -1725 0 -1725 0 -60 28 c-127 59 -198 170 -199 309 0 66 5
85 33 142 38 77 101 137 175 165 50 20 82 20 1773 20 1708 1 1723 1 1777 -19z
m-1192 -1257 c66 -30 133 -96 165 -162 24 -49 28 -68 28 -146 0 -79 -3 -97
-29 -147 -35 -69 -84 -118 -156 -155 l-55 -28 -1135 0 -1135 0 -55 26 c-200
96 -258 345 -121 518 35 44 79 74 149 102 45 17 100 18 1172 16 l1125 -2 47
-22z m-1432 -1234 c67 -14 157 -76 197 -136 43 -63 67 -160 58 -229 -15 -120
-103 -233 -212 -274 -54 -20 -71 -21 -497 -18 -435 3 -442 3 -487 26 -73 36
-125 87 -160 158 -27 53 -32 77 -33 137 -1 108 23 168 99 244 101 101 107 102
587 102 250 1 416 -3 448 -10z"/>
</g>
</svg>
