<svg width="302" height="281" viewBox="0 0 302 281" fill="none" xmlns="http://www.w3.org/2000/svg">
<g clip-path="url(#clip0_104_100)">
<path d="M269.244 85.2483C264.004 127.03 227.4 168.743 187.144 195.606C83.1123 265.592 -17.459 146.835 7.90922 104.182C26.9508 60.9204 86.3489 72.8031 111.617 55.7959C253.631 -40.4678 274.168 50.2784 269.244 85.2483Z" fill="#00E4A1"/>
<path opacity="0.9" d="M269.244 85.2483C264.004 127.03 227.4 168.743 187.144 195.606C83.1123 265.592 -17.459 146.835 7.90922 104.182C26.9508 60.9204 86.3489 72.8031 111.617 55.7959C253.631 -40.4678 274.168 50.2784 269.244 85.2483Z" fill="white"/>
<path d="M152.228 280.396C234.746 280.396 301.64 276.49 301.64 271.673C301.64 266.855 234.746 262.949 152.228 262.949C69.7095 262.949 2.81543 266.855 2.81543 271.673C2.81543 276.49 69.7095 280.396 152.228 280.396Z" fill="#F5F7FA"/>
<path d="M152.196 229.143H42.7708L36.7832 53.1606H146.209L152.196 229.143Z" fill="#00E4A1"/>
<path d="M157.66 223.68H48.2346L42.2393 47.697H151.665L157.66 223.68Z" fill="#00E4A1"/>
<path opacity="0.3" d="M157.66 223.68H48.2346L42.2393 47.697H151.665L157.66 223.68Z" fill="white"/>
<path d="M120.997 120.113C132.713 108.195 132.215 88.7061 119.883 76.584C107.552 64.4618 88.0577 64.2968 76.3413 76.2153C64.625 88.1338 65.1234 107.623 77.4547 119.745C89.786 131.867 109.28 132.032 120.997 120.113Z" fill="#00E4A1"/>
<path d="M124.076 98.1715C124.234 102.365 123.319 106.529 121.418 110.27C119.366 114.301 116.231 117.681 112.366 120.031C108.5 122.38 104.056 123.606 99.5327 123.571C94.903 123.546 90.3612 122.304 86.3631 119.969C82.3649 117.634 79.051 114.29 76.7537 110.27C74.6117 106.587 73.4151 102.43 73.2706 98.1715C73.1285 94.8695 73.6591 91.5731 74.8303 88.4826C76.0015 85.392 77.7889 82.5718 80.0837 80.1934C82.3785 77.815 85.133 75.9279 88.1797 74.6469C91.2263 73.3659 94.5017 72.7177 97.8066 72.7416C104.615 72.7898 111.143 75.4589 116.035 80.1945C120.927 84.9301 123.807 91.3682 124.076 98.1715Z" fill="white"/>
<path opacity="0.6" d="M121.403 110.27C119.352 114.301 116.217 117.681 112.351 120.031C108.486 122.38 104.042 123.606 99.5183 123.57C94.8885 123.545 90.3468 122.303 86.3486 119.969C82.3505 117.634 79.0365 114.289 76.7393 110.27C83.2564 105.827 90.968 103.465 98.8556 103.496C106.87 103.513 114.706 105.867 121.403 110.27Z" fill="#00E4A1"/>
<path opacity="0.6" d="M106.586 97.5377C110.894 93.1551 110.711 85.9889 106.177 81.5315C101.643 77.0741 94.4742 77.0134 90.166 81.396C85.8578 85.7785 86.041 92.9447 90.5753 97.4022C95.1097 101.86 102.278 101.92 106.586 97.5377Z" fill="#00E4A1"/>
<path d="M135.675 159.951H65.8734L65.4033 146.08H135.205L135.675 159.951Z" fill="white"/>
<path d="M136.522 184.741H66.7132L66.2432 170.87H136.052L136.522 184.741Z" fill="white"/>
<path d="M109.582 172.781L92.7594 175.093C92.5989 175.111 92.4439 175.163 92.3042 175.244C92.1644 175.325 92.043 175.434 91.9475 175.564C91.8519 175.694 91.7844 175.843 91.7491 176.001C91.7137 176.158 91.7114 176.322 91.7422 176.48L93.9538 187.754C94.0262 188.085 94.2197 188.377 94.4964 188.572C94.773 188.767 95.1128 188.852 95.4488 188.81L112.271 186.498C112.431 186.478 112.585 186.425 112.724 186.343C112.863 186.26 112.984 186.15 113.078 186.02C113.173 185.889 113.24 185.74 113.275 185.582C113.309 185.425 113.311 185.262 113.281 185.103L111.077 173.829C111.004 173.499 110.81 173.208 110.533 173.014C110.257 172.82 109.917 172.737 109.582 172.781ZM104.75 184.202L101.668 184.61L101.367 180.973C101.049 180.835 100.769 180.624 100.551 180.355C100.332 180.087 100.181 179.77 100.111 179.432C100.054 179.169 100.053 178.898 100.108 178.635C100.163 178.372 100.273 178.124 100.429 177.906C100.586 177.688 100.787 177.505 101.019 177.37C101.251 177.235 101.509 177.149 101.775 177.12C102.323 177.049 102.877 177.187 103.328 177.505C103.778 177.823 104.093 178.299 104.211 178.838C104.277 179.164 104.257 179.501 104.151 179.817C104.046 180.132 103.859 180.414 103.609 180.634L104.75 184.202Z" fill="#00E4A1"/>
<path d="M107.918 172.173C107.62 172.21 107.32 172.136 107.074 171.963C106.829 171.791 106.657 171.533 106.592 171.24L106.377 170.138C106.069 168.634 105.226 167.293 104.004 166.364C102.783 165.434 101.265 164.979 99.734 165.083C98.9612 165.127 98.2069 165.337 97.5224 165.698C96.8378 166.06 96.2391 166.564 95.7669 167.178C95.2946 167.791 94.9599 168.499 94.7855 169.253C94.611 170.007 94.6009 170.79 94.7559 171.548L95.0025 172.82C95.0312 172.961 95.0302 173.106 94.9995 173.247C94.9688 173.387 94.9091 173.52 94.8242 173.636C94.7394 173.752 94.6312 173.849 94.5066 173.921C94.3821 173.992 94.2439 174.038 94.1009 174.053C93.8029 174.094 93.5003 174.021 93.2542 173.848C93.0082 173.675 92.8371 173.415 92.7755 173.12L92.5674 172.049C92.3558 171.048 92.3488 170.015 92.5468 169.011C92.7448 168.007 93.1437 167.054 93.7195 166.208C94.2954 165.362 95.0362 164.641 95.8977 164.089C96.7591 163.537 97.7233 163.165 98.7322 162.995C100.92 162.627 103.165 163.116 105.002 164.36C106.838 165.605 108.125 167.508 108.596 169.676L108.843 170.94C108.871 171.082 108.87 171.229 108.837 171.371C108.805 171.513 108.744 171.647 108.656 171.763C108.569 171.88 108.458 171.976 108.331 172.047C108.204 172.117 108.063 172.16 107.918 172.173Z" fill="#00E4A1"/>
<path d="M125.002 204.168H79.5593L79.2588 195.136H124.694L125.002 204.168Z" fill="#00E4A1"/>
<path d="M103.078 153.015C103.092 153.345 103.038 153.673 102.921 153.982C102.804 154.29 102.625 154.571 102.396 154.808C102.167 155.045 101.892 155.233 101.588 155.361C101.284 155.488 100.958 155.553 100.628 155.551C99.9484 155.545 99.2969 155.279 98.8079 154.808C98.3189 154.336 98.0297 153.694 98.0001 153.015C97.9865 152.686 98.04 152.357 98.1573 152.049C98.2745 151.741 98.4531 151.46 98.6822 151.223C98.9114 150.986 99.1863 150.798 99.4902 150.67C99.7942 150.542 100.121 150.478 100.451 150.48C101.131 150.483 101.783 150.749 102.273 151.221C102.762 151.693 103.051 152.336 103.078 153.015Z" fill="#263238"/>
<path d="M92.1205 153.015C92.1352 153.345 92.0825 153.674 91.9656 153.983C91.8488 154.291 91.6702 154.573 91.4408 154.81C91.2115 155.048 90.9362 155.236 90.6317 155.363C90.3272 155.49 90 155.554 89.67 155.551C88.9913 155.545 88.3406 155.279 87.8529 154.807C87.3651 154.335 87.0776 153.693 87.0499 153.015C87.0363 152.686 87.0898 152.357 87.2071 152.049C87.3243 151.741 87.5029 151.46 87.7321 151.223C87.9612 150.986 88.2361 150.798 88.54 150.67C88.844 150.542 89.1708 150.478 89.5004 150.48C90.1797 150.484 90.8314 150.749 91.3196 151.222C91.8078 151.694 92.0947 152.337 92.1205 153.015Z" fill="#263238"/>
<path d="M81.2308 153.015C81.2444 153.345 81.1909 153.673 81.0737 153.982C80.9564 154.29 80.7778 154.571 80.5487 154.808C80.3196 155.045 80.0447 155.233 79.7407 155.361C79.4367 155.488 79.11 155.553 78.7803 155.551C78.101 155.547 77.4493 155.281 76.9612 154.809C76.473 154.337 76.1861 153.694 76.1603 153.015C76.1467 152.686 76.2002 152.357 76.3174 152.049C76.4347 151.741 76.6133 151.46 76.8424 151.223C77.0715 150.986 77.3464 150.798 77.6504 150.67C77.9544 150.542 78.2811 150.478 78.6108 150.48C79.2901 150.484 79.9418 150.749 80.4299 151.222C80.9181 151.694 81.205 152.337 81.2308 153.015Z" fill="#263238"/>
<path d="M113.997 153.015C114.01 153.345 113.957 153.673 113.84 153.982C113.722 154.29 113.544 154.571 113.315 154.808C113.086 155.045 112.811 155.233 112.507 155.361C112.203 155.488 111.876 155.553 111.546 155.551C110.867 155.547 110.215 155.281 109.727 154.809C109.239 154.337 108.952 153.694 108.926 153.015C108.915 152.687 108.97 152.36 109.089 152.053C109.208 151.747 109.387 151.468 109.617 151.233C109.847 150.998 110.122 150.812 110.426 150.687C110.73 150.561 111.056 150.499 111.385 150.503C112.059 150.508 112.705 150.772 113.191 151.239C113.677 151.706 113.965 152.342 113.997 153.015Z" fill="#263238"/>
<path d="M124.917 153.015C124.932 153.345 124.879 153.674 124.762 153.983C124.646 154.291 124.467 154.573 124.238 154.81C124.008 155.048 123.733 155.236 123.429 155.363C123.124 155.49 122.797 155.554 122.467 155.551C121.788 155.545 121.138 155.279 120.65 154.807C120.162 154.335 119.874 153.693 119.847 153.015C119.833 152.686 119.887 152.357 120.004 152.049C120.121 151.741 120.3 151.46 120.529 151.223C120.758 150.986 121.033 150.798 121.337 150.67C121.641 150.542 121.968 150.478 122.297 150.48C122.977 150.484 123.628 150.749 124.116 151.222C124.605 151.694 124.892 152.337 124.917 153.015Z" fill="#263238"/>
<path d="M216.889 85.2178C217.914 86.8669 218.769 88.4389 219.648 90.0803C220.526 91.7217 221.32 93.3708 222.098 95.0584C223.686 98.4756 225.001 102.013 226.028 105.639C226.167 106.093 226.267 106.579 226.383 107.049L226.552 107.766L226.637 108.12L226.737 108.706C226.911 110.034 226.83 111.384 226.499 112.682C225.967 114.698 225.157 116.63 224.094 118.423C222.193 121.682 219.894 124.692 217.251 127.385L214.007 124.935C215.636 121.941 217.084 118.853 218.346 115.687C218.907 114.293 219.303 112.836 219.525 111.349C219.595 110.895 219.574 110.431 219.463 109.985L219.155 109.045C219.031 108.66 218.916 108.274 218.769 107.881C217.597 104.702 216.241 101.594 214.708 98.5723C213.167 95.4899 211.51 92.4075 209.854 89.4638L216.889 85.2178Z" fill="#FF8B7B"/>
<path d="M214.832 123.864L211.287 125.736L215.356 130.498C215.356 130.498 217.899 128.78 218.014 126.16L214.832 123.864Z" fill="#FF8B7B"/>
<path d="M206.533 128.672L210.887 132.132L215.357 130.498L211.288 125.736L206.533 128.672Z" fill="#FF8B7B"/>
<path d="M191.644 60.0036C191.559 60.4352 191.259 60.7357 190.982 60.6818C190.704 60.6278 190.542 60.2271 190.627 59.8033C190.712 59.3795 191.012 59.0327 191.298 59.1252C191.583 59.2176 191.729 59.5721 191.644 60.0036Z" fill="#263238"/>
<path d="M191.297 60.7434C190.521 61.9504 189.583 63.0447 188.508 63.9954C188.762 64.2584 189.069 64.4635 189.41 64.5965C189.75 64.7295 190.116 64.7873 190.481 64.766L191.297 60.7434Z" fill="#FF5652"/>
<path d="M189.91 75.8628V70.8076L196.599 71.5782C196.599 71.5782 196.491 75.9244 192.746 77.2036L189.91 75.8628Z" fill="#FF8B7B"/>
<path d="M191.837 67.1704L196.545 68.5267L196.63 71.6168L189.941 70.8077L191.837 67.1704Z" fill="#FF8B7B"/>
<path opacity="0.2" d="M196.545 68.5267L191.837 67.1704L190.92 68.9274C190.97 70.3118 191.403 71.6553 192.17 72.8088C192.937 73.9623 194.009 74.8807 195.266 75.4621C196.075 74.3321 196.548 72.9964 196.63 71.6091L196.545 68.5267Z" fill="black"/>
<path d="M193.694 57.9462C193.743 57.9448 193.791 57.9296 193.832 57.9021C193.873 57.8747 193.906 57.8362 193.926 57.7911C193.946 57.7459 193.953 57.6961 193.946 57.6471C193.939 57.5982 193.918 57.5523 193.886 57.5146C193.616 57.209 193.276 56.9725 192.895 56.825C192.514 56.6776 192.104 56.6234 191.698 56.667C191.632 56.6783 191.572 56.7155 191.533 56.7704C191.494 56.8253 191.479 56.8934 191.49 56.9598C191.501 57.0267 191.538 57.0865 191.593 57.1268C191.647 57.167 191.715 57.1845 191.783 57.1756C192.104 57.144 192.429 57.1898 192.729 57.3091C193.029 57.4284 193.297 57.6178 193.509 57.8614C193.532 57.8872 193.561 57.9079 193.593 57.9225C193.624 57.937 193.659 57.9451 193.694 57.9462Z" fill="#263238"/>
<path d="M203.543 67.8022C202.772 71.7708 202.294 77.2653 205.084 79.9084C205.084 79.9084 204.005 83.931 196.607 83.931C188.508 83.931 192.716 80.4016 192.716 80.4016C196.083 79.3536 196.052 75.5237 195.282 72.4413L203.543 67.8022Z" fill="#FF8B7B"/>
<path d="M206.586 82.5594C207.31 81.5422 207.28 78.3134 206.509 77.7431C205.268 76.8261 199.944 76.6103 192.785 78.2594C193.555 81.3881 191.898 83.0217 191.898 83.0217L206.586 82.5594Z" fill="#00E4A1"/>
<path d="M230.676 265.508C230.456 265.585 230.223 265.618 229.99 265.605C229.757 265.592 229.529 265.533 229.319 265.431C229.24 265.357 229.185 265.26 229.163 265.154C229.141 265.047 229.153 264.937 229.196 264.837C229.22 264.754 229.263 264.677 229.32 264.612C229.377 264.547 229.448 264.495 229.527 264.46C230.26 264.105 231.939 264.791 232.017 264.822C232.04 264.831 232.059 264.847 232.073 264.868C232.087 264.889 232.094 264.913 232.094 264.938C232.093 264.962 232.087 264.987 232.075 265.008C232.063 265.03 232.045 265.048 232.024 265.061C231.59 265.252 231.138 265.401 230.676 265.508ZM229.789 264.637C229.739 264.649 229.69 264.667 229.643 264.691C229.595 264.709 229.552 264.737 229.517 264.775C229.482 264.812 229.457 264.858 229.443 264.907C229.373 265.138 229.443 265.215 229.489 265.238C229.782 265.485 230.861 265.238 231.624 264.953C231.043 264.713 230.417 264.605 229.789 264.637Z" fill="#00E4A1"/>
<path d="M231.994 265.069H231.932C231.316 264.891 230.006 263.959 229.99 263.35C229.99 263.253 230.022 263.159 230.082 263.084C230.143 263.008 230.227 262.955 230.322 262.934C230.413 262.9 230.511 262.886 230.608 262.894C230.705 262.902 230.8 262.932 230.884 262.98C231.609 263.35 232.071 264.845 232.086 264.915C232.097 264.933 232.103 264.955 232.103 264.976C232.103 264.998 232.097 265.019 232.086 265.038C232.074 265.05 232.06 265.059 232.044 265.064C232.028 265.07 232.011 265.071 231.994 265.069ZM230.453 263.15H230.391C230.237 263.204 230.237 263.281 230.237 263.319C230.237 263.682 231.115 264.414 231.778 264.706C231.616 264.275 231.262 263.42 230.792 263.165C230.687 263.118 230.569 263.112 230.46 263.15H230.453Z" fill="#00E4A1"/>
<path d="M190.651 266.417C189.957 266.417 189.287 266.317 189.063 266.009C189.005 265.927 188.974 265.829 188.974 265.728C188.974 265.627 189.005 265.529 189.063 265.447C189.107 265.371 189.166 265.306 189.237 265.254C189.307 265.202 189.387 265.166 189.472 265.146C190.373 264.899 192.269 265.978 192.346 266.024C192.37 266.036 192.389 266.055 192.4 266.079C192.411 266.103 192.414 266.13 192.408 266.155C192.405 266.182 192.394 266.207 192.376 266.226C192.358 266.245 192.334 266.259 192.308 266.263C191.761 266.364 191.207 266.415 190.651 266.417ZM189.795 265.362C189.714 265.348 189.631 265.348 189.549 265.362C189.497 265.372 189.447 265.394 189.404 265.424C189.36 265.455 189.323 265.494 189.295 265.539C189.202 265.701 189.241 265.778 189.295 265.824C189.549 266.179 190.913 266.186 191.922 266.04C191.263 265.68 190.541 265.45 189.795 265.362Z" fill="#00E4A1"/>
<path d="M192.3 266.263H192.246C191.591 265.97 190.296 264.799 190.396 264.183C190.396 264.036 190.519 263.859 190.874 263.828C191.001 263.813 191.129 263.825 191.251 263.862C191.373 263.899 191.486 263.961 191.583 264.044C192.077 264.634 192.373 265.365 192.431 266.132C192.43 266.154 192.425 266.176 192.416 266.196C192.407 266.216 192.393 266.233 192.377 266.248C192.353 266.26 192.326 266.265 192.3 266.263ZM190.974 264.067H190.897C190.666 264.067 190.65 264.175 190.65 264.206C190.589 264.576 191.467 265.5 192.138 265.901C192.079 265.283 191.828 264.698 191.421 264.229C191.294 264.121 191.133 264.063 190.966 264.067H190.974Z" fill="#00E4A1"/>
<path d="M198.249 266.14H192.831L192.292 253.587H197.709L198.249 266.14Z" fill="#FF8B7B"/>
<path d="M238.035 263.628L232.741 264.776L227.416 253.086L232.718 251.938L238.035 263.628Z" fill="#FF8B7B"/>
<path d="M232.224 264.244L238.181 262.957C238.285 262.935 238.394 262.949 238.489 262.997C238.584 263.044 238.66 263.123 238.705 263.219L240.77 267.704C240.825 267.813 240.854 267.933 240.853 268.055C240.853 268.176 240.824 268.296 240.768 268.404C240.713 268.513 240.632 268.606 240.533 268.677C240.435 268.749 240.32 268.795 240.2 268.814C238.12 269.222 237.079 269.322 234.467 269.885C232.856 270.239 229.219 271.126 226.992 271.603C224.765 272.081 224.002 269.947 224.873 269.554C228.764 267.774 230.383 266.209 231.438 264.753C231.629 264.493 231.909 264.312 232.224 264.244Z" fill="#263238"/>
<path d="M192.869 265.508H198.788C198.895 265.509 198.999 265.546 199.083 265.613C199.167 265.68 199.226 265.773 199.25 265.878L200.321 270.694C200.353 270.811 200.356 270.933 200.332 271.051C200.307 271.169 200.256 271.28 200.181 271.374C200.106 271.469 200.01 271.544 199.9 271.595C199.791 271.645 199.671 271.669 199.551 271.665C197.416 271.627 194.334 271.503 191.652 271.503C188.508 271.503 185.803 271.673 182.119 271.673C179.892 271.673 179.276 269.423 180.208 269.215C184.447 268.29 187.914 268.19 191.575 265.932C191.959 265.674 192.407 265.528 192.869 265.508Z" fill="#263238"/>
<path d="M214.777 81.1489C219.856 82.3125 224.025 95.2818 224.025 95.2818L213.876 103.042C211.242 100.225 209.383 96.7735 208.482 93.0239C206.686 86.2272 209.584 79.9468 214.777 81.1489Z" fill="#00E4A1"/>
<path opacity="0.4" d="M214.777 81.1489C219.856 82.3125 224.025 95.2818 224.025 95.2818L213.876 103.042C211.242 100.225 209.383 96.7735 208.482 93.0239C206.686 86.2272 209.584 79.9468 214.777 81.1489Z" fill="black"/>
<path d="M188.061 96.615C186.797 97.979 185.533 99.1966 184.208 100.468C183.553 101.085 182.89 101.701 182.212 102.294L181.187 103.196L180.933 103.419L180.494 103.774C180.042 104.135 179.541 104.431 179.006 104.652C178.412 104.905 177.772 105.036 177.126 105.038C176.574 105.04 176.026 104.943 175.508 104.753C174.933 104.534 174.409 104.201 173.967 103.774C173.402 103.222 172.988 102.535 172.764 101.778C172.647 101.405 172.572 101.02 172.541 100.63C172.501 100.174 172.501 99.7145 172.541 99.2582C172.58 98.8883 172.626 98.5647 172.687 98.2641C172.898 97.2134 173.197 96.1823 173.581 95.1817C173.928 94.2306 174.327 93.2994 174.776 92.3921C175.269 91.4135 175.739 90.6968 176.209 89.88C178.118 86.7523 180.297 83.7973 182.721 81.0489C185.12 78.3166 187.764 75.8094 190.619 73.5586L193.455 76.4792C191.467 79.1455 189.51 82.0044 187.699 84.8171C185.896 87.6139 184.25 90.508 182.767 93.4864C182.436 94.2107 181.996 95.0276 181.788 95.6132C181.513 96.2936 181.273 96.9881 181.072 97.6939C180.877 98.3294 180.731 98.9785 180.632 99.6358C180.627 99.7385 180.627 99.8414 180.632 99.944C180.632 100.006 180.632 100.037 180.632 99.8747C180.62 99.7017 180.586 99.5309 180.532 99.3661C180.366 98.8198 180.06 98.326 179.646 97.9328C179.277 97.5942 178.845 97.3322 178.374 97.1622C177.961 97.0054 177.522 96.9245 177.08 96.9233C176.654 96.9181 176.232 96.9994 175.839 97.1622C175.706 97.2165 175.577 97.2809 175.454 97.3548L175.747 97.0851L176.679 96.2374L178.521 94.5113C179.738 93.3631 180.964 92.1378 182.12 90.9973L188.061 96.615Z" fill="#FF8B7B"/>
<path opacity="0.2" d="M210.424 90.6738C213.183 93.4018 214.084 98.3799 214.277 102.695L213.83 103.042C211.196 100.225 209.337 96.7738 208.436 93.0242C208.336 92.6235 208.243 92.2536 208.174 91.8143L210.424 90.6738Z" fill="black"/>
<path d="M182.675 86.5431C181.565 92.3997 180.871 104.429 184.085 128.24H213.106C213.306 123.794 210.509 102.078 214.801 81.1104C211.594 80.4946 208.351 80.0853 205.091 79.8851C200.985 79.6496 196.868 79.6496 192.762 79.8851C191.405 80.0084 190.065 80.2088 188.909 80.4168C187.371 80.6865 185.952 81.4167 184.839 82.5106C183.726 83.6046 182.971 85.0108 182.675 86.5431Z" fill="#00E4A1"/>
<path opacity="0.4" d="M182.675 86.5431C181.565 92.3997 180.871 104.429 184.085 128.24H213.106C213.306 123.794 210.509 102.078 214.801 81.1104C211.594 80.4946 208.351 80.0853 205.091 79.8851C200.985 79.6496 196.868 79.6496 192.762 79.8851C191.405 80.0084 190.065 80.2088 188.909 80.4168C187.371 80.6865 185.952 81.4167 184.839 82.5106C183.726 83.6046 182.971 85.0108 182.675 86.5431Z" fill="black"/>
<path opacity="0.2" d="M187.113 95.228L181.873 93.9719C181.711 97.1468 181.695 101.077 181.927 105.939C184.339 103.196 187.421 98.9115 187.113 95.228Z" fill="black"/>
<path opacity="0.2" d="M192.292 253.587L192.569 260.06H197.994L197.717 253.587H192.292Z" fill="black"/>
<path opacity="0.2" d="M232.718 251.938L227.416 253.086L230.159 259.112L235.461 257.964L232.718 251.938Z" fill="black"/>
<path d="M206.116 62.0072C204.729 67.2011 204.174 70.3143 200.968 72.472C196.152 75.7548 190.141 71.9943 189.987 66.5076C189.818 61.5526 192.122 53.8851 197.693 52.8371C198.918 52.6073 200.18 52.6931 201.362 53.0863C202.544 53.4796 203.607 54.1673 204.449 55.0848C205.292 56.0022 205.887 57.1191 206.179 58.3303C206.47 59.5414 206.449 60.8068 206.116 62.0072Z" fill="#FF8B7B"/>
<path d="M193.956 62.1998C193.694 61.5063 192.5 56.1351 193.625 54.7404C194.75 53.3456 207.58 54.3551 209.476 56.2199C212.628 59.3023 210.439 62.0765 206.995 65.6444C204.406 68.3261 204.305 71.3468 202.995 71.8092C200.684 72.5798 197.154 71.8554 196.445 69.4126C195.736 66.9698 193.956 62.1998 193.956 62.1998Z" fill="#263238"/>
<path d="M207.919 50.1091C203.388 48.1826 194.888 50.3172 190.295 49.2075C190.237 50.9153 190.798 52.5865 191.876 53.9124C192.954 55.2383 194.476 56.1291 196.159 56.4204C199.969 57.1464 203.84 57.5051 207.719 57.4915C212.758 57.2603 211.772 51.7505 207.919 50.1091Z" fill="#263238"/>
<path d="M208.628 56.3819C210.283 56.5447 211.95 56.2263 213.429 55.4648C214.276 57.5146 209.614 58.0772 208.628 56.3819Z" fill="#263238"/>
<path d="M196.422 62.4156C196.318 63.752 195.776 65.0169 194.881 66.0143C193.694 67.3167 192.461 66.4998 192.253 64.9201C192.068 63.4868 192.453 61.0671 193.902 60.3735C195.351 59.68 196.522 60.8051 196.422 62.4156Z" fill="#FF8B7B"/>
<path d="M194.372 128.264C194.372 128.264 200.537 169.684 203.904 185.204C207.596 202.195 227.431 258.411 227.431 258.411L237.133 256.307C237.133 256.307 223.262 210.487 220.18 186.729C217.791 168.481 213.098 128.248 213.098 128.248L194.372 128.264Z" fill="#00E4A1"/>
<path d="M225.104 255.182C225.066 255.182 226.915 258.696 226.915 258.696L237.827 256.33L236.91 253.047L225.104 255.182Z" fill="#263238"/>
<path opacity="0.3" d="M198.264 143.021C205.377 144.416 204.621 170.94 203.766 184.587C201.716 174.939 198.711 156.383 196.661 143.213C197.158 142.968 197.723 142.9 198.264 143.021Z" fill="black"/>
<path d="M184.085 128.264C184.085 128.264 183.314 168.79 183.93 185.288C184.547 202.48 190.55 258.773 190.55 258.773H199.735C199.735 258.773 200.067 203.482 200.506 186.598C200.953 168.196 203.172 128.233 203.172 128.233L184.085 128.264Z" fill="#00E4A1"/>
<path d="M188.786 255.151C188.74 255.151 189.302 258.958 189.302 258.958H200.468L200.776 255.56L188.786 255.151Z" fill="#263238"/>
<path d="M194.033 88.3463C196.63 95.3511 181.365 103.604 181.365 103.604L174.753 95.1276C174.753 95.1276 179.199 86.3274 184.594 82.3665C191.259 77.4808 192.053 83.0138 194.033 88.3463Z" fill="#00E4A1"/>
<path opacity="0.4" d="M194.033 88.3463C196.63 95.3511 181.365 103.604 181.365 103.604L174.753 95.1276C174.753 95.1276 179.199 86.3274 184.594 82.3665C191.259 77.4808 192.053 83.0138 194.033 88.3463Z" fill="black"/>
<path d="M253.846 35.167C269.206 35.167 281.657 27.2317 281.657 17.4431C281.657 7.65448 269.206 -0.280762 253.846 -0.280762C238.487 -0.280762 226.035 7.65448 226.035 17.4431C226.035 27.2317 238.487 35.167 253.846 35.167Z" fill="#00E4A1"/>
<path d="M243.814 26.3667C241.981 26.3608 240.21 25.7094 238.811 24.527C237.411 23.3445 236.473 21.7067 236.161 19.9013C235.855 17.9457 236.296 15.9464 237.397 14.3014C238.498 12.6564 240.178 11.4863 242.103 11.024C243.682 10.66 245.336 10.8003 246.832 11.4251C248.327 12.0499 249.589 13.1277 250.441 14.5071L268.296 10.8236C268.982 10.6734 269.699 10.7875 270.305 11.1432C270.911 11.4989 271.36 12.07 271.563 12.7424C271.656 13.096 271.677 13.4649 271.623 13.8265C271.569 14.1882 271.442 14.5351 271.249 14.8459C271.056 15.1568 270.803 15.4251 270.503 15.6345C270.203 15.8439 269.864 15.9899 269.505 16.0637L269.043 16.1562C268.974 16.1685 268.909 16.1965 268.853 16.2379C268.797 16.2793 268.751 16.3331 268.719 16.3951C268.691 16.458 268.676 16.5263 268.676 16.5954C268.676 16.6646 268.691 16.7329 268.719 16.7958L269.035 17.6126C269.141 17.8774 269.151 18.1708 269.064 18.4423C268.977 18.7138 268.798 18.9463 268.558 19.0999C268.368 19.2169 268.208 19.3756 268.089 19.5639C267.97 19.7522 267.896 19.9651 267.872 20.1865C267.849 20.4405 267.747 20.6809 267.579 20.8732C267.412 21.0656 267.188 21.2001 266.939 21.2576L266.577 21.3346C266.326 21.381 266.067 21.3463 265.837 21.2355C265.607 21.1246 265.418 20.9434 265.298 20.7182C265.138 20.4494 264.898 20.2372 264.612 20.1112C264.326 19.9853 264.007 19.9517 263.701 20.0154C263.395 20.079 263.116 20.2366 262.904 20.4662C262.691 20.6957 262.556 20.9859 262.516 21.2961C262.495 21.5485 262.393 21.7876 262.227 21.9787C262.061 22.1699 261.838 22.3033 261.591 22.3596L261.229 22.4366C260.978 22.4818 260.719 22.4465 260.49 22.3358C260.26 22.2251 260.071 22.0446 259.95 21.8201C259.835 21.629 259.679 21.4653 259.494 21.3402C259.309 21.2151 259.099 21.1317 258.879 21.0958C258.582 21.0601 258.309 20.9175 258.111 20.6947C257.912 20.472 257.802 20.1844 257.8 19.8859V19.0074C257.797 18.9387 257.779 18.8715 257.747 18.8103C257.716 18.7492 257.672 18.6955 257.617 18.6531C257.563 18.6107 257.501 18.5804 257.434 18.5644C257.367 18.5484 257.297 18.5471 257.23 18.5605L251.535 19.7318C251.303 21.3095 250.59 22.7773 249.494 23.9355C248.398 25.0938 246.971 25.8861 245.409 26.2049C244.884 26.3122 244.349 26.3664 243.814 26.3667ZM242.272 11.7252C240.524 12.1335 238.996 13.1888 237.995 14.6788C236.994 16.1687 236.595 17.9825 236.878 19.7549C237.181 21.4039 238.064 22.89 239.368 23.9443C240.672 24.9987 242.309 25.5517 243.985 25.5032C245.661 25.4548 247.265 24.8082 248.505 23.6804C249.746 22.5525 250.542 21.0179 250.749 19.3542V19.0768L257.029 17.8053C257.21 17.7617 257.397 17.7588 257.579 17.7968C257.76 17.8347 257.931 17.9126 258.078 18.0248C258.226 18.1369 258.347 18.2805 258.432 18.4452C258.517 18.6098 258.564 18.7914 258.571 18.9766V19.8551C258.572 19.9597 258.61 20.0605 258.677 20.1405C258.745 20.2205 258.838 20.2748 258.94 20.2943C259.277 20.3426 259.599 20.4669 259.88 20.6578C260.162 20.8487 260.397 21.1013 260.566 21.3963C260.607 21.4795 260.673 21.5479 260.754 21.592C260.836 21.6362 260.929 21.654 261.021 21.6429L261.376 21.5658C261.465 21.5427 261.545 21.4912 261.604 21.4191C261.662 21.3469 261.695 21.2578 261.699 21.1651C261.748 20.6854 261.948 20.2336 262.27 19.8749C262.592 19.5162 263.02 19.2693 263.492 19.1698C263.964 19.0702 264.455 19.1233 264.894 19.3213C265.334 19.5193 265.699 19.852 265.938 20.2712C265.977 20.3538 266.041 20.4219 266.121 20.4661C266.202 20.5103 266.294 20.5284 266.384 20.5178L266.754 20.4408C266.843 20.4162 266.921 20.3642 266.978 20.2921C267.035 20.22 267.067 20.1317 267.07 20.04C267.108 19.7017 267.223 19.3766 267.406 19.0894C267.589 18.8023 267.835 18.5607 268.126 18.3832C268.211 18.322 268.273 18.2341 268.302 18.1336C268.332 18.0331 268.326 17.9257 268.288 17.8284L267.972 17.0116C267.907 16.8432 267.879 16.6625 267.891 16.4823C267.902 16.3021 267.953 16.1265 268.04 15.968C268.126 15.8095 268.247 15.6718 268.392 15.5646C268.537 15.4573 268.704 15.3831 268.881 15.3471L269.351 15.2469C269.606 15.1926 269.847 15.0876 270.059 14.9382C270.272 14.7887 270.453 14.5978 270.59 14.377C270.728 14.1561 270.819 13.9098 270.859 13.6528C270.899 13.3958 270.887 13.1333 270.823 12.8811C270.673 12.3962 270.344 11.9861 269.904 11.7331C269.464 11.4801 268.944 11.403 268.45 11.5172L250.094 15.3317L249.955 15.0928C249.218 13.7799 248.073 12.7427 246.694 12.1379C245.315 11.5332 243.776 11.3937 242.311 11.7406L242.272 11.7252ZM243.814 23.5C242.856 23.5107 241.917 23.243 241.109 22.7294C240.153 22.1021 239.445 21.1627 239.104 20.0715C238.764 18.9803 238.812 17.8047 239.242 16.7453C239.671 15.6859 240.454 14.8081 241.458 14.2616C242.462 13.7152 243.625 13.5339 244.748 13.7486C245.87 13.9634 246.884 14.5609 247.615 15.4393C248.347 16.3177 248.751 17.4226 248.759 18.5657C248.767 19.7088 248.378 20.8192 247.659 21.7078C246.94 22.5963 245.935 23.208 244.815 23.4384C244.487 23.4978 244.154 23.5236 243.821 23.5155L243.814 23.5ZM243.814 14.3992C243.526 14.4009 243.24 14.4292 242.958 14.484C242.421 14.5983 241.912 14.8173 241.46 15.1284C241.008 15.4395 240.621 15.8366 240.322 16.2971C240.024 16.7576 239.819 17.2724 239.719 17.8121C239.619 18.3519 239.627 18.906 239.741 19.4428C239.855 19.9797 240.074 20.4887 240.385 20.941C240.696 21.3932 241.093 21.7797 241.554 22.0785C242.014 22.3772 242.529 22.5823 243.069 22.6821C243.609 22.7819 244.163 22.7744 244.7 22.6601C245.506 22.4923 246.244 22.0897 246.821 21.503C247.399 20.9163 247.79 20.1718 247.944 19.3633C248.099 18.5548 248.012 17.7185 247.692 16.9599C247.372 16.2013 246.835 15.5543 246.148 15.1005C245.466 14.6468 244.664 14.4079 243.844 14.4146L243.814 14.3992Z" fill="white"/>
<path opacity="0.6" d="M231.214 45.5624C236.261 45.5624 240.353 42.9541 240.353 39.7366C240.353 36.5192 236.261 33.9109 231.214 33.9109C226.166 33.9109 222.074 36.5192 222.074 39.7366C222.074 42.9541 226.166 45.5624 231.214 45.5624Z" fill="#00E4A1"/>
<path opacity="0.3" d="M216.673 47.9513C218.745 47.9513 220.426 46.8818 220.426 45.5625C220.426 44.2431 218.745 43.1736 216.673 43.1736C214.6 43.1736 212.92 44.2431 212.92 45.5625C212.92 46.8818 214.6 47.9513 216.673 47.9513Z" fill="#00E4A1"/>
</g>
<defs>
<clipPath id="clip0_104_100">
<rect width="301.86" height="281" fill="white" transform="translate(0.0703125)"/>
</clipPath>
</defs>
</svg>
